<svg width="32" height="28" viewBox="0 0 32 28" fill="none" xmlns="http://www.w3.org/2000/svg">
<rect y="0.5" width="32" height="27" rx="10" fill="#C1DEFF"/>
<path d="M21.1667 13.3333H16.3333V8.5C16.3333 8.22386 16.1095 8 15.8333 8C15.5572 8 15.3333 8.22386 15.3333 8.5V13.3333H10.5C10.2239 13.3333 10 13.5572 10 13.8333C10 14.1095 10.2239 14.3333 10.5 14.3333H15.3333V19.1667C15.3333 19.4428 15.5572 19.6667 15.8333 19.6667C16.1095 19.6667 16.3333 19.4428 16.3333 19.1667V14.3333H21.1667C21.4428 14.3333 21.6667 14.1095 21.6667 13.8333C21.6667 13.5572 21.4428 13.3333 21.1667 13.3333Z" fill="#404A51"/>
</svg>
