<svg width="20" height="20" viewBox="0 0 20 20" fill="none" xmlns="http://www.w3.org/2000/svg">
<path d="M13.75 6.7998H6.25C5.90482 6.7998 5.625 7.07963 5.625 7.4248C5.625 7.76998 5.90482 8.04981 6.25 8.04981H13.75C14.0952 8.04981 14.375 7.76998 14.375 7.4248C14.375 7.07963 14.0952 6.7998 13.75 6.7998Z" fill="#404A51" stroke="#404A51" stroke-width="0.5"/>
<path fill-rule="evenodd" clip-rule="evenodd" d="M14.0743 2.97467H14.166C16.4672 2.97467 18.3327 4.84015 18.3327 7.14134V14.6413C18.3327 16.9425 16.4672 18.808 14.166 18.808H5.83268C4.72761 18.808 3.66781 18.369 2.8864 17.5876C2.105 16.8062 1.66602 15.7464 1.66602 14.6413V7.14134C1.66602 4.84015 3.5315 2.97467 5.83268 2.97467H5.90768V2.91634V1.45801C5.90768 1.11283 6.1875 0.833008 6.53268 0.833008C6.87786 0.833008 7.15768 1.11283 7.15768 1.45801V2.91634V2.97467H12.8243V2.91634V1.45801C12.8243 1.11283 13.1042 0.833008 13.4493 0.833008C13.7945 0.833008 14.0743 1.11283 14.0743 1.45801V2.91634V2.97467ZM14.166 17.558C15.7768 17.558 17.0827 16.2522 17.0827 14.6413V7.14134C17.0827 5.53051 15.7768 4.22467 14.166 4.22467H5.83268C4.22185 4.22467 2.91602 5.53051 2.91602 7.14134V14.6413C2.91602 16.2522 4.22185 17.558 5.83268 17.558H14.166Z" fill="#404A51"/>
<path d="M14.0743 2.97467H13.8243V3.22467H14.0743V2.97467ZM2.8864 17.5876L2.70963 17.7644H2.70963L2.8864 17.5876ZM5.90768 2.97467V3.22467H6.15768V2.97467H5.90768ZM7.15768 2.97467H6.90768V3.22467H7.15768V2.97467ZM12.8243 2.97467V3.22467H13.0743V2.97467H12.8243ZM14.166 2.72467H14.0743V3.22467H14.166V2.72467ZM18.5827 7.14134C18.5827 4.70208 16.6053 2.72467 14.166 2.72467V3.22467C16.3291 3.22467 18.0827 4.97823 18.0827 7.14134H18.5827ZM18.5827 14.6413V7.14134H18.0827V14.6413H18.5827ZM14.166 19.058C16.6053 19.058 18.5827 17.0806 18.5827 14.6413H18.0827C18.0827 16.8045 16.3291 18.558 14.166 18.558V19.058ZM5.83268 19.058H14.166V18.558H5.83268V19.058ZM2.70963 17.7644C3.53791 18.5927 4.66131 19.058 5.83268 19.058V18.558C4.79392 18.558 3.7977 18.1454 3.06318 17.4108L2.70963 17.7644ZM1.41602 14.6413C1.41602 15.8127 1.88134 16.9361 2.70963 17.7644L3.06318 17.4108C2.32866 16.6763 1.91602 15.6801 1.91602 14.6413H1.41602ZM1.41602 7.14134V14.6413H1.91602V7.14134H1.41602ZM5.83268 2.72467C3.39342 2.72467 1.41602 4.70208 1.41602 7.14134H1.91602C1.91602 4.97823 3.66957 3.22467 5.83268 3.22467V2.72467ZM5.90768 2.72467H5.83268V3.22467H5.90768V2.72467ZM5.65768 2.91634V2.97467H6.15768V2.91634H5.65768ZM5.65768 1.45801V2.91634H6.15768V1.45801H5.65768ZM6.53268 0.583008C6.04943 0.583008 5.65768 0.974759 5.65768 1.45801H6.15768C6.15768 1.2509 6.32558 1.08301 6.53268 1.08301V0.583008ZM7.40768 1.45801C7.40768 0.974758 7.01593 0.583008 6.53268 0.583008V1.08301C6.73979 1.08301 6.90768 1.2509 6.90768 1.45801H7.40768ZM7.40768 2.91634V1.45801H6.90768V2.91634H7.40768ZM7.40768 2.97467V2.91634H6.90768V2.97467H7.40768ZM12.8243 2.72467H7.15768V3.22467H12.8243V2.72467ZM12.5743 2.91634V2.97467H13.0743V2.91634H12.5743ZM12.5743 1.45801V2.91634H13.0743V1.45801H12.5743ZM13.4493 0.583008C12.9661 0.583008 12.5743 0.974759 12.5743 1.45801H13.0743C13.0743 1.2509 13.2422 1.08301 13.4493 1.08301V0.583008ZM14.3243 1.45801C14.3243 0.974759 13.9326 0.583008 13.4493 0.583008V1.08301C13.6565 1.08301 13.8243 1.2509 13.8243 1.45801H14.3243ZM14.3243 2.91634V1.45801H13.8243V2.91634H14.3243ZM14.3243 2.97467V2.91634H13.8243V2.97467H14.3243ZM16.8327 14.6413C16.8327 16.1141 15.6388 17.308 14.166 17.308V17.808C15.9149 17.808 17.3327 16.3902 17.3327 14.6413H16.8327ZM16.8327 7.14134V14.6413H17.3327V7.14134H16.8327ZM14.166 4.47467C15.6388 4.47467 16.8327 5.66858 16.8327 7.14134H17.3327C17.3327 5.39244 15.9149 3.97467 14.166 3.97467V4.47467ZM5.83268 4.47467H14.166V3.97467H5.83268V4.47467ZM3.16602 7.14134C3.16602 5.66858 4.35992 4.47467 5.83268 4.47467V3.97467C4.08378 3.97467 2.66602 5.39244 2.66602 7.14134H3.16602ZM3.16602 14.6413V7.14134H2.66602V14.6413H3.16602ZM5.83268 17.308C4.35992 17.308 3.16602 16.1141 3.16602 14.6413H2.66602C2.66602 16.3902 4.08378 17.808 5.83268 17.808V17.308ZM14.166 17.308H5.83268V17.808H14.166V17.308Z" fill="#404A51"/>
</svg>
