<svg xmlns="http://www.w3.org/2000/svg" width="9" height="8" viewBox="0 0 9 8" fill="none">
<path d="M1.13206 7.23999V1.26561C1.13206 1.09195 0.991276 0.951172 0.817615 0.951172C0.643954 0.951172 0.503174 1.09195 0.503174 1.26561V7.55443C0.503174 7.72809 0.643954 7.86887 0.817615 7.86887H8.3642C8.53786 7.86887 8.67864 7.72809 8.67864 7.55443C8.67864 7.38077 8.53786 7.23999 8.3642 7.23999H1.13206Z" fill="#1C1C1C"/>
<path d="M0.595389 6.07421C0.53642 6.13318 0.503174 6.21327 0.503174 6.29667C0.503174 6.30171 0.503295 6.30674 0.503537 6.31177C0.507292 6.38985 0.539996 6.46374 0.595271 6.51901C0.654241 6.57798 0.73422 6.61111 0.817615 6.61111C0.90101 6.61111 0.980989 6.57798 1.03996 6.51901L3.33314 4.22583L4.36856 5.26125C4.49136 5.38404 4.69045 5.38404 4.81325 5.26125L7.95766 2.11684C8.01663 2.05787 8.04976 1.97789 8.04976 1.89449C8.04976 1.8111 8.01663 1.73112 7.95766 1.67215C7.89869 1.61318 7.81871 1.58005 7.73532 1.58005C7.65192 1.58005 7.57194 1.61318 7.51297 1.67215L4.59091 4.59422L3.55549 3.5588C3.49652 3.49983 3.41654 3.4667 3.33314 3.4667C3.24975 3.4667 3.16977 3.49983 3.1108 3.5588L0.595389 6.07421Z" fill="#1C1C1C"/>
<path d="M7.73532 1.58005H6.16311C5.98945 1.58005 5.84867 1.72083 5.84867 1.89449C5.84867 2.06816 5.98945 2.20894 6.16311 2.20894H7.42088V3.4667C7.42088 3.64036 7.56166 3.78114 7.73532 3.78114C7.90898 3.78114 8.04976 3.64036 8.04976 3.4667V1.89449C8.04976 1.72083 7.90898 1.58005 7.73532 1.58005Z" fill="#1C1C1C"/>
</svg>