<svg width="24" height="24" viewBox="0 0 24 24" fill="none" xmlns="http://www.w3.org/2000/svg">
<path d="M5 19C5 19.5523 5.44772 20 6 20L19 20C19.5523 20 20 19.5523 20 19C20 18.4477 19.5523 18 19 18L6 18C5.44772 18 5 18.4477 5 19Z" fill="#AABBC7"/>
<path d="M5 12C5 12.5523 5.44772 13 6 13L19 13C19.5523 13 20 12.5523 20 12C20 11.4477 19.5523 11 19 11L6 11C5.44772 11 5 11.4477 5 12Z" fill="#AABBC7"/>
<path d="M5 5C5 5.55228 5.44772 6 6 6L19 6C19.5523 6 20 5.55228 20 5C20 4.44771 19.5523 4 19 4L6 4C5.44772 4 5 4.44772 5 5Z" fill="#AABBC7"/>
</svg>
