<svg xmlns="http://www.w3.org/2000/svg" width="6" height="9" viewBox="0 0 6 9" fill="none">
<path fill-rule="evenodd" clip-rule="evenodd" d="M3.25183 4.77209C3.14 4.8567 2.98564 4.85702 2.87345 4.77288L0.4837 2.98057C0.4837 2.98057 0.364837 2.89028 0.298949 2.7585C0.298949 2.7585 0.233061 2.62672 0.232153 2.4794L0.232147 1.06248C0.232147 1.06248 0.232147 0.801984 0.416343 0.617789C0.416343 0.617789 0.600538 0.433594 0.861029 0.433594H5.2632C5.2632 0.433594 5.5237 0.433594 5.70789 0.617789C5.70789 0.617789 5.89209 0.801984 5.89209 1.06248V2.46174C5.89209 2.46174 5.89117 2.611 5.82528 2.74278C5.82528 2.74278 5.7594 2.87455 5.64208 2.96368L3.25183 4.77209ZM5.2617 2.46287C5.2617 2.46287 5.2624 2.46232 5.26279 2.46153L5.26309 2.46117L5.2632 2.46173V1.06248H0.861029L0.861023 2.47552C0.861023 2.47552 0.861029 2.47644 0.861438 2.47726L0.861552 2.47771C0.861552 2.47771 0.861463 2.47779 0.861032 2.47746L3.06129 4.12766L5.2617 2.46287Z" fill="#1C1C1C"/>
<path fill-rule="evenodd" clip-rule="evenodd" d="M5.64208 6.07898C5.64208 6.07898 5.7594 6.1681 5.82528 6.29988C5.82528 6.29988 5.89117 6.43165 5.89209 6.58091V7.98018C5.89209 7.98018 5.89209 8.24067 5.70789 8.42486C5.70789 8.42486 5.52369 8.60906 5.2632 8.60906H0.861029C0.861029 8.60906 0.600538 8.60906 0.416343 8.42486C0.416343 8.42486 0.232147 8.24067 0.232147 7.98018L0.232153 6.56326C0.232153 6.56326 0.233061 6.41593 0.298949 6.28415C0.298949 6.28415 0.364837 6.15238 0.4837 6.06209L2.87345 4.26977C2.98564 4.18563 3.14 4.18595 3.25183 4.27057L5.64208 6.07898ZM5.26279 6.58112C5.26279 6.58112 5.2624 6.58033 5.26171 6.57979L3.06129 4.915L0.861032 6.56519L0.861551 6.56494L0.861438 6.5654C0.861438 6.5654 0.861029 6.56622 0.861023 6.56713L0.861029 7.98018H5.2632V6.58092L5.26309 6.58148C5.26304 6.58143 5.26287 6.58127 5.26279 6.58112Z" fill="#1C1C1C"/>
<path d="M0.547571 6.25075L0.546588 6.25075C0.527724 6.25075 0.508898 6.25245 0.490338 6.25582C0.341189 6.28294 0.232622 6.41262 0.232149 6.56421L0.232147 6.56519C0.232147 6.58406 0.233845 6.60288 0.237219 6.62144C0.264338 6.77059 0.394012 6.87916 0.545606 6.87963L0.546588 6.87963L5.57663 6.89535L5.57764 6.89536C5.58235 6.89536 5.58706 6.89525 5.59177 6.89504C5.66986 6.89153 5.74384 6.85905 5.79929 6.80395C5.85844 6.74517 5.89182 6.66529 5.89208 6.5819L5.89209 6.58091C5.89209 6.56205 5.89039 6.54322 5.88701 6.52466C5.85989 6.37552 5.73022 6.26695 5.57863 6.26648L0.547571 6.25075Z" fill="#1C1C1C"/>
</svg>