<svg width="141" height="26" viewBox="0 0 141 26" fill="none" xmlns="http://www.w3.org/2000/svg">
<path d="M3.60571 0V8.85023C5.18531 8.98648 6.75689 9.20311 8.31428 9.49926V4.59733H21.6V0H3.60571Z" fill="#212121"/>
<path d="M21.5857 20.4535V25.1106H3.60571V13.9916C2.52571 14.0969 1.45429 14.2563 0.402857 14.4613L0 14.5325V10.2397L0.285714 10.197C5.47159 9.29891 10.7741 9.29891 15.96 10.197L16.2457 10.2426V14.5353L15.8514 14.4642C13.3721 13.9968 10.8547 13.7586 8.33143 13.7525V20.4649L21.5857 20.4535Z" fill="#212121"/>
<path d="M47.8744 12.3432C47.983 18.6912 44.0944 25.1132 35.2744 25.1132H25.7544V0.00292969H35.2744C43.9144 0.00292969 47.7658 6.13746 47.8744 12.3432ZM30.463 20.5557H35.2658C40.9801 20.5557 43.2658 16.3968 43.1487 12.3004C43.0401 8.392 40.7373 4.48071 35.2658 4.48071H30.463V20.5557Z" fill="#212121"/>
<path d="M72.8542 0.0400391V14.4242C72.8542 21.8482 68.2828 25.6513 61.9428 25.6513C55.8914 25.6456 50.7485 21.9905 50.7485 14.4242V0.0400391H55.4628V14.4242C55.4628 18.9418 58.0542 21.3472 61.98 21.3472C65.9057 21.3472 68.1371 18.7283 68.1371 14.4242V0.0400391H72.8542Z" fill="#212121"/>
<path d="M140.369 0.0195312H78.54V25.6707H140.369V0.0195312Z" fill="#F3970B"/>
<path d="M104.16 5.46875H106.023L101.708 20.2372H99.7085L95.9942 8.11613L92.2514 20.2372H90.2828L85.9971 5.48298H87.8799L91.3714 17.5812L95.0856 5.48298H96.9256L100.671 17.6239L104.16 5.46875Z" fill="white"/>
<path d="M118.643 20.2366L117.034 16.1317H110.077L108.446 20.2366H106.586L112.489 5.48242H114.666L120.569 20.2366H118.643ZM110.711 14.5433H116.403L113.546 7.33559L110.711 14.5433Z" fill="white"/>
<path d="M130.889 5.46875H132.917L127.44 14.3645V20.2372H125.58V14.3645L120.12 5.46875H122.177L126.534 12.6366L130.889 5.46875Z" fill="white"/>
</svg>
