<svg width="26" height="26" viewBox="0 0 26 26" fill="none" xmlns="http://www.w3.org/2000/svg">
<path d="M14.0002 1.72848L18.2469 1.72848C20.5285 1.68007 22.4187 3.48783 22.4719 5.76932L22.3961 20.0693C22.337 22.3525 20.4437 24.1586 18.1602 24.1102L13.9136 24.1102C12.8159 24.1363 11.7529 23.7252 10.9584 22.9673C10.164 22.2095 9.70329 21.167 9.67773 20.0693L9.67773 18.726L9.67774 13.851L14.9319 13.851L12.4077 16.3968C12.2318 16.5717 12.1328 16.8096 12.1328 17.0577C12.1328 17.3057 12.2318 17.5436 12.4077 17.7185C12.5796 17.9 12.8186 18.0029 13.0686 18.0029C13.3186 18.0029 13.5575 17.9 13.7294 17.7185L17.8677 13.5802C18.2284 13.2134 18.2284 12.6252 17.8677 12.2585L13.7294 8.12015C13.5575 7.93861 13.3186 7.83577 13.0686 7.83577C12.8186 7.83577 12.5796 7.93861 12.4077 8.12015C12.2318 8.29504 12.1328 8.53289 12.1328 8.78098C12.1328 9.02908 12.2318 9.26693 12.4077 9.44182L14.9644 11.9877L9.72107 11.9877L9.72107 7.11265L9.72107 5.76932C9.74647 4.66393 10.2132 3.61467 11.0171 2.85555C11.821 2.09642 12.8952 1.69056 14.0002 1.72848V1.72848Z" fill="#404A51"/>
<path d="M3.74124 11.9877L9.72124 11.9877L9.72124 13.8511L3.74124 13.8511C3.22669 13.8511 2.80957 13.434 2.80957 12.9194C2.80957 12.4049 3.22669 11.9877 3.74124 11.9877V11.9877Z" fill="#404A51"/>
</svg>
