<svg xmlns="http://www.w3.org/2000/svg" width="8" height="8" viewBox="0 0 8 8" fill="none">
<path fill-rule="evenodd" clip-rule="evenodd" d="M7.77235 2.14592L4.39576 5.52252C4.34299 5.57529 4.27141 5.60493 4.19679 5.60493H3.07125C2.91585 5.60493 2.78987 5.47895 2.78987 5.32355V4.19802C2.78987 4.12339 2.81952 4.05182 2.87229 3.99905L6.24888 0.622454C6.30165 0.569685 6.37322 0.540039 6.44785 0.540039C6.52248 0.540039 6.59405 0.569685 6.64682 0.622454L7.77235 1.74799C7.88224 1.85787 7.88224 2.03604 7.77235 2.14592ZM6.44785 1.21936L7.17545 1.94695L4.08023 5.04217H3.35264V4.31457L6.44785 1.21936Z" fill="#1C1C1C"/>
<path d="M6.53018 2.98998C6.58295 3.04275 6.65461 3.07249 6.72923 3.07249C6.73409 3.07249 6.73895 3.07236 6.74379 3.07211C6.81329 3.06851 6.87899 3.03928 6.9282 2.99007C6.98097 2.9373 7.01062 2.86573 7.01062 2.7911C7.01062 2.71648 6.98097 2.64491 6.9282 2.59214L5.80267 1.4666C5.7499 1.41383 5.67833 1.38419 5.6037 1.38419C5.52908 1.38419 5.4575 1.41383 5.40473 1.4666C5.35196 1.51937 5.32232 1.59094 5.32232 1.66557C5.32232 1.7402 5.35196 1.81177 5.40473 1.86454L6.53018 2.98998Z" fill="#1C1C1C"/>
<path d="M1.38296 1.38419H4.47817C4.63357 1.38419 4.75955 1.25821 4.75955 1.10281C4.75955 0.947402 4.63357 0.821422 4.47817 0.821422H1.38296C1.14985 0.821422 0.985021 0.986253 0.985021 0.986253C0.82019 1.15108 0.82019 1.38419 0.82019 1.38419V7.01185C0.82019 7.24496 0.985021 7.40979 0.985021 7.40979C1.14985 7.57462 1.38296 7.57462 1.38296 7.57462H7.01062C7.24372 7.57462 7.40855 7.40979 7.40855 7.40979C7.57338 7.24496 7.57338 7.01185 7.57338 7.01185V3.91664C7.57338 3.76123 7.4474 3.63525 7.292 3.63525C7.1366 3.63525 7.01062 3.76123 7.01062 3.91664V7.01185H1.38296V1.38419Z" fill="#1C1C1C"/>
</svg>