<svg width="12" height="15" viewBox="0 0 12 15" fill="none" xmlns="http://www.w3.org/2000/svg">
<path d="M6.24935 8.16675C5.51602 8.16675 4.91602 8.76675 4.91602 9.50008C4.91602 10.2334 5.51602 10.8334 6.24935 10.8334C6.98268 10.8334 7.58268 10.2334 7.58268 9.50008C7.58268 8.76675 6.98268 8.16675 6.24935 8.16675ZM10.2493 4.83342H9.58268V3.50008C9.58268 1.66008 8.08935 0.166748 6.24935 0.166748C4.72935 0.166748 3.40268 1.19341 3.02268 2.66675C2.92935 3.02675 3.14268 3.38675 3.50268 3.48008C3.85602 3.57341 4.22268 3.36008 4.31602 3.00008C4.54268 2.12008 5.33602 1.50008 6.24935 1.50008C7.34935 1.50008 8.24935 2.40008 8.24935 3.50008V4.83342H2.24935C1.51602 4.83342 0.916016 5.43341 0.916016 6.16675V12.8334C0.916016 13.5667 1.51602 14.1667 2.24935 14.1667H10.2493C10.9827 14.1667 11.5827 13.5667 11.5827 12.8334V6.16675C11.5827 5.43341 10.9827 4.83342 10.2493 4.83342ZM10.2493 12.1667C10.2493 12.5334 9.94935 12.8334 9.58268 12.8334H2.91602C2.54935 12.8334 2.24935 12.5334 2.24935 12.1667V6.83342C2.24935 6.46675 2.54935 6.16675 2.91602 6.16675H9.58268C9.94935 6.16675 10.2493 6.46675 10.2493 6.83342V12.1667Z" fill="#323232"/>
</svg>
