<svg xmlns="http://www.w3.org/2000/svg" width="14" height="3" viewBox="0 0 14 3" fill="none">
<path d="M12.1667 2.33325H1.5C1.22386 2.33325 1 2.10939 1 1.83325C1 1.55711 1.22386 1.33325 1.5 1.33325H12.1667C12.4428 1.33325 12.6667 1.55711 12.6667 1.83325C12.6667 2.10939 12.4428 2.33325 12.1667 2.33325Z" fill="#0B1C3F"/>
<path d="M12.1667 2.33325H1.5C1.22386 2.33325 1 2.10939 1 1.83325C1 1.55711 1.22386 1.33325 1.5 1.33325H12.1667C12.4428 1.33325 12.6667 1.55711 12.6667 1.83325C12.6667 2.10939 12.4428 2.33325 12.1667 2.33325Z" stroke="black"/>
<path d="M12.1667 2.33325H1.5C1.22386 2.33325 1 2.10939 1 1.83325C1 1.55711 1.22386 1.33325 1.5 1.33325H12.1667C12.4428 1.33325 12.6667 1.55711 12.6667 1.83325C12.6667 2.10939 12.4428 2.33325 12.1667 2.33325Z" stroke="black" stroke-opacity="0.2"/>
</svg>