<svg width="10" height="9" viewBox="0 0 10 9" fill="none" xmlns="http://www.w3.org/2000/svg">
<path fill-rule="evenodd" clip-rule="evenodd" d="M5.0621 0.322266C5.0621 0.322266 5.89354 0.322266 6.65332 0.643629C6.65332 0.643629 7.38696 0.953928 7.95256 1.51953C7.95256 1.51953 8.51817 2.08514 8.82847 2.81877C8.82847 2.81877 9.14983 3.57856 9.14983 4.41C9.14983 4.41 9.14983 5.24143 8.82847 6.00122C8.82847 6.00122 8.51817 6.73486 7.95256 7.30046C7.95256 7.30046 7.38695 7.86607 6.65332 8.17637C6.65332 8.17637 5.89353 8.49773 5.0621 8.49773C5.0621 8.49773 4.23066 8.49773 3.47087 8.17637C3.47087 8.17637 2.73724 7.86607 2.17163 7.30046C2.17163 7.30046 1.60603 6.73486 1.29573 6.00122C1.29573 6.00122 0.974365 5.24144 0.974365 4.41C0.974365 4.41 0.974365 3.57856 1.29573 2.81877C1.29573 2.81877 1.60603 2.08514 2.17163 1.51953C2.17163 1.51953 2.73724 0.953929 3.47087 0.643629C3.47087 0.643629 4.23066 0.322266 5.0621 0.322266ZM5.0621 0.951147C5.0621 0.951147 4.35819 0.951147 3.71585 1.22283C3.71585 1.22283 3.09519 1.48535 2.61632 1.96422C2.61632 1.96422 2.13745 2.44309 1.87493 3.06375C1.87493 3.06375 1.60325 3.70609 1.60325 4.41C1.60325 4.41 1.60325 5.11391 1.87493 5.75624C1.87493 5.75624 2.13745 6.3769 2.61632 6.85578C2.61632 6.85578 3.09519 7.33465 3.71585 7.59716C3.71585 7.59716 4.35819 7.86885 5.0621 7.86885C5.0621 7.86885 5.76601 7.86885 6.40834 7.59716C6.40834 7.59716 7.029 7.33465 7.50788 6.85578C7.50788 6.85578 7.98675 6.3769 8.24926 5.75624C8.24926 5.75624 8.52095 5.11391 8.52095 4.41C8.52095 4.41 8.52095 3.70609 8.24926 3.06375C8.24926 3.06375 7.98675 2.44309 7.50788 1.96422C7.50788 1.96422 7.029 1.48535 6.40834 1.22283C6.40834 1.22283 5.76601 0.951148 5.0621 0.951147Z" fill="#1C1C1C"/>
<path fill-rule="evenodd" clip-rule="evenodd" d="M4.60764 5.92943C4.55598 5.96386 4.49529 5.98224 4.43322 5.98224C4.25956 5.98224 4.11878 5.84146 4.11878 5.6678V3.15227C4.11878 3.09019 4.13715 3.0295 4.17159 2.97785C4.26792 2.83335 4.46314 2.79431 4.60764 2.89064L6.49428 4.1484C6.52882 4.17143 6.55847 4.20107 6.58149 4.23561C6.67782 4.38011 6.63878 4.57533 6.49428 4.67166L4.60764 5.92943ZM5.753 4.41003L4.74766 5.08026V3.73981L5.753 4.41003Z" fill="#1C1C1C"/>
</svg>
