<svg xmlns="http://www.w3.org/2000/svg" width="9" height="9" viewBox="0 0 9 9" fill="none">
<path fill-rule="evenodd" clip-rule="evenodd" d="M0.166931 1.69135C0.166931 1.69135 0.166931 1.43085 0.351126 1.24666C0.351126 1.24666 0.535322 1.06246 0.795813 1.06246H7.71352C7.71352 1.06246 7.97401 1.06246 8.1582 1.24666C8.1582 1.24666 8.3424 1.43085 8.3424 1.69135V6.40796C8.3424 6.40796 8.3424 6.66845 8.1582 6.85265C8.1582 6.85265 7.97401 7.03684 7.71352 7.03684H0.795813C0.795813 7.03684 0.535321 7.03684 0.351126 6.85265C0.351126 6.85265 0.166931 6.66845 0.166931 6.40796V1.69135ZM0.795813 1.69135V6.40796H7.71352V1.69135H0.795813Z" fill="#1C1C1C"/>
<path d="M6.52454 8.49089C6.57664 8.55601 6.65258 8.59791 6.73547 8.60712C6.747 8.60841 6.75859 8.60905 6.77019 8.60905C6.77383 8.60905 6.77746 8.60898 6.78109 8.60886C6.84872 8.60651 6.91378 8.58241 6.96662 8.54014C7.04121 8.48047 7.08463 8.39013 7.08463 8.29461C7.08463 8.28996 7.08453 8.28531 7.08432 8.28066C7.08137 8.2141 7.05735 8.1502 7.01573 8.09818L5.75797 6.52597C5.69829 6.45138 5.60795 6.40796 5.51243 6.40796C5.50778 6.40796 5.50313 6.40806 5.49848 6.40827C5.43192 6.41122 5.36802 6.43524 5.316 6.47686C5.24141 6.53654 5.19799 6.62688 5.19799 6.7224C5.19799 6.72705 5.19809 6.7317 5.1983 6.73635C5.20125 6.80291 5.22527 6.86681 5.26689 6.91883L6.52454 8.49089Z" fill="#1C1C1C"/>
<path d="M3.24244 6.91883L3.24355 6.91743C3.28746 6.8619 3.31134 6.79319 3.31134 6.7224C3.31134 6.62688 3.26792 6.53654 3.19333 6.47686C3.18549 6.4706 3.17736 6.46471 3.16897 6.45922C3.11781 6.42577 3.05802 6.40796 2.9969 6.40796C2.9853 6.40796 2.97371 6.4086 2.96218 6.40988L2.96146 6.40996C2.87884 6.41934 2.8033 6.46105 2.75136 6.52597L1.4937 8.09805C1.44909 8.15381 1.4247 8.22321 1.4247 8.29461L1.4247 8.29687C1.42538 8.39159 1.46874 8.48097 1.54271 8.54014C1.59846 8.58475 1.66774 8.60905 1.73914 8.60905H1.73976C1.75115 8.60902 1.76254 8.60838 1.77386 8.60712C1.85675 8.59791 1.93258 8.55616 1.98467 8.49104L3.24244 6.91883Z" fill="#1C1C1C"/>
<path d="M2.68246 4.20687V5.1502C2.68246 5.32386 2.82324 5.46464 2.9969 5.46464C3.17056 5.46464 3.31134 5.32386 3.31134 5.1502V4.20687C3.31134 4.03321 3.17056 3.89243 2.9969 3.89243C2.82324 3.89243 2.68246 4.03321 2.68246 4.20687Z" fill="#1C1C1C"/>
<path d="M3.94022 3.57799V5.1502C3.94022 5.32386 4.081 5.46464 4.25466 5.46464C4.42833 5.46464 4.56911 5.32386 4.56911 5.1502V3.57799C4.56911 3.40433 4.42833 3.26355 4.25466 3.26355C4.081 3.26355 3.94022 3.40433 3.94022 3.57799Z" fill="#1C1C1C"/>
<path d="M5.19799 2.94911V5.1502C5.19799 5.32386 5.33877 5.46464 5.51243 5.46464C5.68609 5.46464 5.82687 5.32386 5.82687 5.1502V2.94911C5.82687 2.77545 5.68609 2.63467 5.51243 2.63467C5.33877 2.63467 5.19799 2.77545 5.19799 2.94911Z" fill="#1C1C1C"/>
<path d="M4.56911 1.3769V0.433582C4.56911 0.259921 4.42833 0.119141 4.25466 0.119141C4.081 0.119141 3.94022 0.259921 3.94022 0.433582V1.3769C3.94022 1.55057 4.081 1.69135 4.25466 1.69135C4.42833 1.69135 4.56911 1.55057 4.56911 1.3769Z" fill="#1C1C1C"/>
</svg>