<svg width="25" height="24" viewBox="0 0 25 24" fill="none" xmlns="http://www.w3.org/2000/svg">
<path d="M15.434 12C15.434 13.6208 14.1201 14.9348 12.4992 14.9348C10.8784 14.9348 9.56445 13.6208 9.56445 12C9.56445 10.3791 10.8784 9.06519 12.4992 9.06519C14.1201 9.06519 15.434 10.3791 15.434 12Z" fill="#0169FF"/>
<path fill-rule="evenodd" clip-rule="evenodd" d="M12.5 2.25C12.5 2.25 14.4831 2.25 16.2954 3.01651C16.2954 3.01651 18.0452 3.75663 19.3943 5.10571C19.3943 5.10571 20.7434 6.45478 21.4835 8.20463C21.4835 8.20463 22.25 10.0169 22.25 12C22.25 12 22.25 13.9831 21.4835 15.7954C21.4835 15.7954 20.7434 17.5452 19.3943 18.8943C19.3943 18.8943 18.0452 20.2434 16.2954 20.9835C16.2954 20.9835 14.4831 21.75 12.5 21.75C12.5 21.75 10.5169 21.75 8.70463 20.9835C8.70463 20.9835 6.95478 20.2434 5.60571 18.8943C5.60571 18.8943 4.25663 17.5452 3.51651 15.7954C3.51651 15.7954 2.75 13.9831 2.75 12C2.75 12 2.75 10.0169 3.51651 8.20463C3.51651 8.20463 4.25663 6.45478 5.60571 5.10571C5.60571 5.10571 6.95478 3.75663 8.70463 3.01651C8.70463 3.01651 10.5169 2.25 12.5 2.25ZM12.5 3.75C12.5 3.75 10.821 3.75 9.28896 4.39802C9.28896 4.39802 7.80857 5.02417 6.66637 6.16637C6.66637 6.16637 5.52417 7.30857 4.89802 8.78896C4.89802 8.78896 4.25 10.321 4.25 12C4.25 12 4.25 13.679 4.89802 15.211C4.89802 15.211 5.52417 16.6914 6.66637 17.8336C6.66637 17.8336 7.80857 18.9758 9.28896 19.602C9.28896 19.602 10.821 20.25 12.5 20.25C12.5 20.25 14.179 20.25 15.711 19.602C15.711 19.602 17.1914 18.9758 18.3336 17.8336C18.3336 17.8336 19.4758 16.6914 20.102 15.211C20.102 15.211 20.75 13.6789 20.75 12C20.75 12 20.75 10.3211 20.102 8.78896C20.102 8.78896 19.4758 7.30857 18.3336 6.16637C18.3336 6.16637 17.1914 5.02417 15.711 4.39802C15.711 4.39802 14.179 3.75 12.5 3.75Z" fill="#EEEEEE"/>
</svg>
