<svg width="62" height="76" viewBox="0 0 62 76" fill="none" xmlns="http://www.w3.org/2000/svg">
<path d="M37.4097 13.4982C25.8304 20.5475 18.3479 25.0855 14.9619 27.1121C14.3687 27.4654 14.077 27.7501 14.0454 28.5254C14.0016 29.6048 14.017 30.6817 14.0916 31.756L13.9749 45.286C13.9716 45.6283 13.829 45.713 13.547 45.5402L0.47413 37.5335C0.328628 37.4448 0.208147 37.3171 0.124891 37.1636C0.0416359 37.01 -0.00143693 36.836 3.65751e-05 36.6591C0.0486616 31.2671 0.0535244 25.8039 0.0146244 20.2696C0.00976191 19.4359 0.384174 19.0089 1.0163 18.6276C10.8742 12.6848 20.6924 6.75312 30.4709 0.832416C30.6259 0.738218 30.8021 0.688599 30.9814 0.688599C31.1608 0.688599 31.3369 0.738218 31.492 0.832416L44.2026 8.52137C44.2951 8.57742 44.3715 8.65708 44.4237 8.75192C44.4759 8.84677 44.502 8.95329 44.4992 9.06023C44.4976 9.15852 44.3971 9.26697 44.1977 9.38558C41.9286 10.7361 39.6659 12.107 37.4097 13.4982Z" fill="#23854A"/>
<path d="M47.9073 49.1998C47.8944 42.5173 47.9203 35.834 47.9851 29.1499C47.9948 28.026 47.9025 27.5352 46.9885 26.9961C42.4644 24.3279 37.9143 21.5901 33.3382 18.7829C33.3095 18.7655 33.2856 18.7405 33.269 18.7103C33.2524 18.6802 33.2437 18.646 33.2437 18.6113C33.2437 18.5765 33.2524 18.5423 33.269 18.5122C33.2856 18.4821 33.3095 18.4571 33.3382 18.4396L38.112 15.5205C40.9104 13.8609 43.6991 12.1928 46.4781 10.5163C46.8557 10.2874 47.2405 10.2934 47.6327 10.5341C51.5978 12.9718 55.5743 15.3883 59.5621 17.7836C60.207 18.1718 60.8422 18.5736 61.4677 18.9889C61.6278 19.0957 61.7597 19.2427 61.851 19.4165C61.9423 19.5903 61.9902 19.7852 61.9903 19.9831C61.9789 31.9563 61.9822 43.9591 62 55.9916C62 56.8129 60.5513 57.5299 59.9826 57.8732C56.3383 60.0634 52.6989 62.2621 49.0643 64.4692C48.7483 64.6608 48.4623 64.7396 48.2063 64.7057C48.1598 64.6996 48.117 64.6759 48.0857 64.639C48.0545 64.6021 48.0369 64.5544 48.0361 64.5048L47.9073 49.1998Z" fill="#23854A"/>
<path d="M31.2983 55.9916C31.1766 55.9577 31.0615 55.9484 30.9528 55.9637C30.8866 55.9736 30.819 55.9601 30.7606 55.9255L16.655 47.4033C16.4566 47.2833 16.2916 47.111 16.1764 46.9036C16.0612 46.6962 15.9998 46.4608 15.9982 46.2208L15.9301 35.8344L15.9349 32.6936L15.9301 29.4205C16.0387 28.8949 16.2642 28.5347 16.6064 28.3397C21.2969 25.6727 25.9379 22.9159 30.5295 20.0693C30.8458 19.8726 31.1896 19.8862 31.561 20.11C36.078 22.8464 40.5957 25.582 45.1143 28.3168C45.7906 28.7254 46.1215 29.3298 46.1069 30.1301C46.0177 35.4284 46.0096 40.7266 46.0826 46.0249C46.1069 47.7797 44.7178 47.795 43.6011 48.5147C39.5626 51.1215 35.3489 53.418 31.2983 55.9916Z" fill="#23854A"/>
<path d="M29.8847 57.8807C30.8821 58.7962 31.5852 58.1604 32.6872 57.4763C37.0452 54.7737 41.4048 52.1144 45.766 49.4982C45.8088 49.4724 45.8573 49.459 45.9067 49.4593C45.9561 49.4597 46.0045 49.4738 46.0469 49.5003C46.0893 49.5267 46.1242 49.5645 46.1479 49.6098C46.1717 49.655 46.1835 49.7061 46.182 49.7577L46.1115 52.3034C45.9169 57.3152 45.8771 61.5743 45.9923 65.0805C46.0198 65.913 45.7247 66.5175 45.1067 66.8939C38.037 71.2021 33.5047 73.9174 31.5098 75.0398C30.9502 75.3551 30.3445 74.9635 29.8092 74.6379C20.5711 69.0513 11.3231 63.4834 2.0655 57.9341C1.1678 57.3975 0.00491384 56.8965 0.0122123 55.6401C0.0414059 50.7181 0.0373515 45.6588 4.8414e-05 40.4622C-0.00319533 40.0739 0.156559 39.9764 0.479312 40.1697L29.8847 57.8807Z" fill="#23854A"/>
</svg>
