<svg width="230" height="149" viewBox="0 0 230 149" fill="none" xmlns="http://www.w3.org/2000/svg">
<rect x="-18" y="-23" width="265" height="201" fill="#BBE7F1"/>
<g clip-path="url(#clip0_593_13827)">
<path d="M32.0678 92.4601C31.4016 92.7302 30.7258 93.0382 30.0443 93.3749C29.6225 92.7425 29.1912 92.1379 28.7493 91.5709C25.4679 87.3612 22.0016 85.4869 18.9888 86.2946C18.532 86.417 18.0919 86.6024 17.6748 86.8442C17.1461 86.363 16.5007 85.9948 15.7639 85.7973C13.296 85.1361 10.75 86.6061 10.0887 89.0739C9.42986 91.5329 10.8875 94.0684 13.3395 94.7408C13.1572 95.7509 13.03 96.8236 12.9578 97.9487C6.70233 98.3593 2.23982 100.462 1.29516 103.988C0.350803 107.512 3.16192 111.564 8.37093 115.046C5.60301 120.665 5.19219 125.578 7.77147 128.158C9.9769 130.364 13.916 130.474 18.8626 128.469C19.5288 128.198 20.2046 127.89 20.8861 127.554C21.3079 128.186 21.7392 128.791 22.1811 129.358C25.4625 133.567 28.9289 135.442 31.9411 134.634C32.2741 134.545 32.5976 134.423 32.9073 134.271C33.3157 134.543 33.7717 134.758 34.2714 134.891C36.7392 135.553 39.2853 134.083 39.9466 131.615C40.5223 129.466 39.4816 127.26 37.5743 126.288C37.766 125.25 37.8971 124.142 37.9712 122.98C44.2275 122.57 48.6906 120.466 49.6353 116.941C50.5797 113.416 47.7679 109.364 42.5581 105.881C43.3522 104.269 43.9584 102.713 44.3489 101.256C45.319 97.635 44.9979 94.6096 43.159 92.7705C40.9535 90.5652 37.0144 90.4551 32.0678 92.4601V92.4601ZM11.879 89.5536C12.2758 88.0727 13.8032 87.1909 15.2841 87.5877C16.765 87.9845 17.6469 89.5119 17.25 90.9928C16.8532 92.4737 15.3258 93.3555 13.8449 92.9587C12.3641 92.5621 11.4822 91.0345 11.879 89.5536ZM20.3172 100.053C19.3848 100.873 18.479 101.722 17.6011 102.6C16.7214 103.48 15.87 104.387 15.0481 105.321C14.8172 103.381 14.7138 101.507 14.7387 99.7429C16.4853 99.7208 18.3604 99.8224 20.3172 100.053ZM3.08554 104.468C3.80426 101.785 7.59392 100.173 12.8882 99.8157C12.8621 102.145 13.0487 104.648 13.4417 107.231C11.7765 109.307 10.3702 111.383 9.24273 113.394C4.84022 110.438 2.36717 107.149 3.08554 104.468ZM10.8198 114.389C11.6734 112.867 12.702 111.296 13.8787 109.718C14.1208 110.935 14.4023 112.144 14.7227 113.343C15.0441 114.542 15.4038 115.73 15.8012 116.907C13.9933 116.129 12.3203 115.28 10.8198 114.389V114.389ZM9.08225 126.847C7.73288 125.498 7.54541 123.147 8.31842 120.262C8.66946 118.952 9.22532 117.529 9.95344 116.044C11.9323 117.219 14.1884 118.311 16.6635 119.274C17.6132 121.708 18.7013 123.969 19.8939 125.979C19.3268 126.255 18.7507 126.513 18.1664 126.75C14.0147 128.434 10.7039 128.469 9.08225 126.847V126.847ZM26.2211 122.058C24.657 123.228 23.085 124.258 21.5382 125.12C20.6296 123.6 19.7833 121.922 19.0138 120.127C20.1671 120.516 21.3594 120.878 22.5868 121.207C23.8142 121.535 25.0276 121.819 26.2211 122.058ZM38.1562 131.135C37.7594 132.616 36.232 133.498 34.7511 133.101C33.2702 132.704 32.3883 131.177 32.7851 129.696C33.1819 128.215 34.7094 127.333 36.1902 127.73C37.6712 128.127 38.553 129.654 38.1562 131.135ZM35.7789 125.793C33.6166 125.648 31.5764 127.045 30.9947 129.216C30.6538 130.489 30.8827 131.78 31.5194 132.824C31.4999 132.83 31.4812 132.839 31.4618 132.844C29.2466 133.437 26.3969 131.751 23.6431 128.218C23.256 127.72 22.8857 127.209 22.5328 126.686C24.5703 125.542 26.6434 124.128 28.6828 122.495C31.3091 122.898 33.8102 123.08 36.1125 123.052C36.0448 124.012 35.9328 124.927 35.7789 125.793ZM30.6133 120.876C31.5456 120.056 32.4514 119.206 33.3293 118.328C34.2279 117.43 35.0747 116.52 35.879 115.606C36.1095 117.545 36.2155 119.421 36.1911 121.186C34.4446 121.208 32.5697 121.106 30.6133 120.876V120.876ZM47.8449 116.461C47.1262 119.143 43.3366 120.756 38.0427 121.113C38.0681 118.782 37.8797 116.276 37.4878 113.695C39.152 111.621 40.5613 109.545 41.6884 107.535C46.0904 110.491 48.5633 113.78 47.8449 116.461ZM40.1093 106.539C39.255 108.063 38.2306 109.635 37.0524 111.214C36.8103 109.996 36.5286 108.786 36.2077 107.586C35.8863 106.387 35.5267 105.198 35.1293 104.022C36.9366 104.799 38.6092 105.648 40.1093 106.539V106.539ZM32.8342 103.101C33.4393 104.73 33.9675 106.387 34.417 108.066C34.8669 109.744 35.2371 111.442 35.5266 113.155C34.4194 114.498 33.2487 115.787 32.0183 117.018C30.7896 118.247 29.5037 119.418 28.1651 120.526C26.499 120.247 24.7908 119.878 23.0665 119.416C21.3423 118.954 19.6786 118.419 18.0962 117.828C17.4911 116.199 16.963 114.542 16.5134 112.863C16.0555 111.154 15.685 109.449 15.4023 107.777C16.5098 106.433 17.6811 105.143 18.9121 103.911C20.1409 102.682 21.4267 101.511 22.7653 100.403C24.4314 100.682 26.1396 101.051 27.8638 101.513C29.5881 101.975 31.2518 102.509 32.8342 103.101ZM15.2018 94.8629C16.9893 94.6121 18.5448 93.3228 19.0405 91.4726C19.3298 90.3931 19.2113 89.2989 18.78 88.3537C19.0027 88.24 19.2326 88.1479 19.4686 88.0849C21.6838 87.4913 24.5334 89.1773 27.2873 92.7106C27.6745 93.2087 28.0448 93.7196 28.3977 94.2426C26.36 95.3866 24.2871 96.8006 22.2476 98.4338C19.6215 98.0303 17.1207 97.8483 14.8187 97.8766C14.894 96.8166 15.0214 95.8086 15.2018 94.8629ZM24.7095 98.8704C26.2735 97.7004 27.8454 96.6705 29.3923 95.8083C30.3008 97.3284 31.1472 99.0063 31.9168 100.802C30.7633 100.412 29.571 100.051 28.3436 99.7221C27.1162 99.3932 25.9029 99.11 24.7095 98.8704V98.8704ZM41.8482 94.0815C43.8106 96.0439 43.3114 100.128 40.9786 104.886C38.9994 103.711 36.7426 102.618 34.267 101.654C33.3174 99.2204 32.229 96.9593 31.0365 94.9497C31.6036 94.6732 32.1798 94.4159 32.7641 94.1781C36.9157 92.4951 40.2265 92.4599 41.8482 94.0815Z" fill="#91D9EC"/>
<path d="M20.0938 109.025C19.4326 111.493 20.9025 114.039 23.3704 114.7C25.8383 115.362 28.3844 113.892 29.0456 111.424C29.7069 108.956 28.2369 106.41 25.7691 105.748C23.3013 105.087 20.7551 106.557 20.0938 109.025ZM27.2554 110.944C26.8586 112.425 25.3311 113.307 23.8503 112.91C22.3694 112.513 21.4875 110.986 21.8843 109.505C22.2811 108.024 23.8085 107.142 25.2894 107.539C26.7703 107.936 27.6522 109.463 27.2554 110.944Z" fill="#91D9EC"/>
</g>
<g clip-path="url(#clip1_593_13827)">
<path d="M33.4005 35.9439C34.0609 35.6761 34.7308 35.3708 35.4064 35.0371C35.8246 35.6639 36.2521 36.2633 36.6901 36.8253C39.943 40.9985 43.3793 42.8564 46.3658 42.0558C46.8187 41.9344 47.2549 41.7507 47.6684 41.511C48.1926 41.988 48.8322 42.353 49.5627 42.5487C52.0091 43.2042 54.533 41.747 55.1885 39.3006C55.8417 36.8631 54.3967 34.3495 51.966 33.683C52.1467 32.6816 52.2729 31.6183 52.3444 30.503C58.5455 30.096 62.9692 28.0111 63.9057 24.5162C64.8418 21.0224 62.0551 17.0064 56.8914 13.554C59.6353 7.98408 60.0425 3.11355 57.4856 0.556099C55.2994 -1.63011 51.3945 -1.73918 46.4909 0.248405C45.8305 0.516146 45.1606 0.821543 44.485 1.15533C44.0669 0.528503 43.6393 -0.0709878 43.2013 -0.633048C39.9484 -4.80616 36.5122 -6.66413 33.5262 -5.86382C33.196 -5.775 32.8753 -5.65448 32.5683 -5.50395C32.1635 -5.77353 31.7114 -5.98595 31.2161 -6.11866C28.7697 -6.77418 26.2457 -5.31691 25.5902 -2.87056C25.0195 -0.740556 26.0511 1.44693 27.9419 2.4102C27.7518 3.43894 27.6219 4.53706 27.5485 5.68914C21.3466 6.0962 16.9223 8.18103 15.9858 11.6761C15.0495 15.1702 17.8369 19.1867 23.0014 22.6394C22.2142 24.2376 21.6133 25.7801 21.2261 27.2249C20.2645 30.814 20.5829 33.8131 22.4058 35.6362C24.5921 37.8223 28.4969 37.9315 33.4005 35.9439V35.9439ZM53.4138 38.8251C53.0205 40.2931 51.5063 41.1673 50.0383 40.7739C48.5703 40.3806 47.6961 38.8664 48.0895 37.3984C48.4828 35.9304 49.9969 35.0562 51.465 35.4496C52.9329 35.8428 53.8072 37.3571 53.4138 38.8251ZM45.049 28.417C45.9732 27.6042 46.8712 26.762 47.7415 25.8917C48.6135 25.0198 49.4575 24.1202 50.2722 23.1945C50.5012 25.1182 50.6036 26.9758 50.579 28.7244C48.8475 28.7463 46.9887 28.6456 45.049 28.417ZM62.1308 24.0406C61.4184 26.6996 57.6616 28.2982 52.4134 28.6522C52.4392 26.3429 52.2543 23.8618 51.8648 21.3011C53.5154 19.2438 54.9095 17.1852 56.0272 15.1923C60.3914 18.1221 62.843 21.3829 62.1308 24.0406ZM54.4638 14.2059C53.6176 15.7146 52.598 17.2722 51.4315 18.8359C51.1915 17.6295 50.9124 16.4312 50.5948 15.2429C50.2762 14.0541 49.9197 12.8758 49.5257 11.7098C51.3179 12.4809 52.9763 13.3221 54.4638 14.2059V14.2059ZM56.1863 1.85567C57.5239 3.19305 57.7097 5.52407 56.9434 8.38392C56.5955 9.68262 56.0444 11.0925 55.3226 12.5654C53.361 11.4006 51.1245 10.3178 48.6709 9.36297C47.7295 6.94998 46.6508 4.70865 45.4686 2.71644C46.0307 2.44246 46.6019 2.18737 47.1811 1.95159C51.2966 0.283087 54.5787 0.248162 56.1863 1.85567V1.85567ZM39.1964 6.60319C40.7469 5.44334 42.3052 4.42239 43.8386 3.56771C44.7393 5.0746 45.5782 6.73789 46.341 8.5176C45.1977 8.13171 44.0158 7.77327 42.7991 7.44725C41.5824 7.12124 40.3795 6.84067 39.1964 6.60319ZM27.3651 -2.395C27.7584 -3.86301 29.2725 -4.7372 30.7406 -4.34385C32.2086 -3.95049 33.0828 -2.43636 32.6894 -0.968344C32.2961 0.499671 30.7819 1.37386 29.3139 0.980504C27.8459 0.587244 26.9717 -0.92689 27.3651 -2.395ZM29.7217 2.90072C31.8652 3.04424 33.8877 1.65933 34.4643 -0.492758C34.8023 -1.75403 34.5753 -3.03375 33.9442 -4.06956C33.9634 -4.07513 33.982 -4.08361 34.0012 -4.08879C36.1972 -4.67714 39.0221 -3.00586 41.752 0.496753C42.1357 0.990554 42.5028 1.49705 42.8527 2.0154C40.8328 3.14952 38.7778 4.55127 36.7561 6.17031C34.1526 5.77024 31.6733 5.58981 29.391 5.61798C29.4581 4.66652 29.5692 3.75926 29.7217 2.90072ZM34.8424 7.77544C33.9182 8.58824 33.0202 9.43041 32.1499 10.3007C31.2592 11.1915 30.4198 12.0934 29.6225 12.9995C29.394 11.077 29.2888 9.21703 29.3131 7.46805C31.0444 7.44612 32.903 7.5468 34.8424 7.77544V7.77544ZM17.7606 12.1517C18.473 9.49276 22.2297 7.89442 27.4776 7.54019C27.4524 9.85057 27.6391 12.3347 28.0276 14.8936C26.3779 16.9498 24.9809 19.0077 23.8635 20.9997C19.4998 18.0699 17.0484 14.8093 17.7606 12.1517ZM25.4289 21.9874C26.2758 20.4771 27.2913 18.9186 28.4592 17.3533C28.6992 18.5608 28.9785 19.7602 29.2966 20.9494C29.6152 22.1383 29.9717 23.3166 30.3657 24.4826C28.574 23.7118 26.9159 22.8708 25.4289 21.9874V21.9874ZM32.6407 25.3959C32.0409 23.7807 31.5174 22.1383 31.0718 20.4739C30.6258 18.8104 30.2587 17.1267 29.9718 15.4286C31.0693 14.0976 32.2299 12.8199 33.4496 11.5999C34.6677 10.3813 35.9423 9.2207 37.2693 8.1218C38.9209 8.39851 40.6142 8.76397 42.3235 9.22198C44.0328 9.67998 45.6821 10.2102 47.2507 10.7963C47.8505 12.4115 48.374 14.0539 48.8197 15.7183C49.2737 17.4128 49.6409 19.1026 49.9212 20.7604C48.8233 22.0925 47.6622 23.3713 46.4419 24.5923C45.2237 25.8108 43.9491 26.9715 42.6221 28.0704C40.9706 27.7937 39.2772 27.4281 37.5679 26.9701C35.8586 26.5121 34.2094 25.982 32.6407 25.3959ZM50.1199 33.562C48.3479 33.8106 46.806 35.0887 46.3146 36.9228C46.0278 37.9929 46.1452 39.0776 46.5728 40.0146C46.352 40.1273 46.1241 40.2186 45.8902 40.2811C43.6943 40.8695 40.8694 39.1982 38.1395 35.6955C37.7556 35.2018 37.3885 34.6953 37.0388 34.1769C39.0587 33.0428 41.1136 31.6411 43.1353 30.0221C45.7386 30.4221 48.2177 30.6026 50.4996 30.5745C50.425 31.6253 50.2987 32.6245 50.1199 33.562ZM40.6949 29.5893C39.1444 30.7491 37.5863 31.7701 36.0528 32.6248C35.1522 31.1179 34.3131 29.4546 33.5502 27.6749C34.6936 28.0608 35.8756 28.419 37.0923 28.745C38.3091 29.0711 39.5118 29.3518 40.6949 29.5893V29.5893ZM23.7052 34.3366C21.7598 32.3912 22.2546 28.3429 24.5672 23.626C26.5292 24.7912 28.7663 25.8744 31.2205 26.8295C32.1618 29.2424 33.2407 31.4838 34.4228 33.4759C33.8607 33.75 33.2895 34.0051 32.7103 34.2408C28.5948 35.9092 25.3127 35.9441 23.7052 34.3366Z" fill="#91D9EC"/>
<path d="M45.2701 19.5229C45.9256 17.0765 44.4684 14.5526 42.022 13.897C39.5755 13.2415 37.0516 14.6988 36.3961 17.1451C35.7406 19.5915 37.1979 22.1155 39.6442 22.771C42.0906 23.4265 44.6146 21.9694 45.2701 19.5229ZM38.1708 17.6207C38.5642 16.1527 40.0783 15.2785 41.5463 15.6718C43.0144 16.0652 43.8885 17.5793 43.4952 19.0473C43.1018 20.5154 41.5877 21.3895 40.1197 20.9962C38.6516 20.6029 37.7775 19.0887 38.1708 17.6207Z" fill="#91D9EC"/>
</g>
<g clip-path="url(#clip2_593_13827)">
<path d="M217.643 56.578C216.999 56.839 216.346 57.1367 215.687 57.4621C215.279 56.851 214.863 56.2666 214.435 55.7186C211.264 51.65 207.914 49.8386 205.002 50.6192C204.561 50.7374 204.135 50.9166 203.732 51.1503C203.221 50.6852 202.597 50.3294 201.885 50.1386C199.5 49.4994 197.039 50.9202 196.4 53.3053C195.764 55.6818 197.172 58.1324 199.542 58.7823C199.366 59.7585 199.243 60.7952 199.173 61.8826C193.127 62.2795 188.815 64.3121 187.902 67.7195C186.989 71.1258 189.706 75.0412 194.74 78.4072C192.065 83.8376 191.668 88.5862 194.161 91.0796C196.292 93.211 200.099 93.3174 204.88 91.3796C205.524 91.1185 206.177 90.8208 206.836 90.4953C207.243 91.1065 207.66 91.691 208.087 92.2389C211.259 96.3076 214.609 98.119 217.52 97.3387C217.842 97.2521 218.155 97.1346 218.454 96.9879C218.849 97.2507 219.29 97.4578 219.772 97.5872C222.158 98.2263 224.618 96.8055 225.257 94.4204C225.814 92.3438 224.808 90.2111 222.965 89.2719C223.15 88.2689 223.277 87.1983 223.348 86.0751C229.395 85.6782 233.708 83.6456 234.621 80.2381C235.534 76.8314 232.817 72.9155 227.781 69.5493C228.549 67.9911 229.135 66.4872 229.512 65.0786C230.45 61.5794 230.139 58.6554 228.362 56.878C226.231 54.7466 222.424 54.6402 217.643 56.578V56.578ZM198.131 53.7689C198.514 52.3377 199.99 51.4854 201.422 51.8689C202.853 52.2524 203.705 53.7286 203.322 55.1599C202.938 56.5911 201.462 57.4434 200.031 57.0599C198.599 56.6765 197.747 55.2002 198.131 53.7689ZM206.286 63.9163C205.385 64.7088 204.509 65.5299 203.661 66.3784C202.811 67.2285 201.988 68.1056 201.194 69.0081C200.97 67.1326 200.87 65.3215 200.894 63.6167C202.583 63.5953 204.395 63.6935 206.286 63.9163ZM189.632 68.1831C190.327 65.5907 193.989 64.0322 199.106 63.6871C199.081 65.9386 199.261 68.3575 199.641 70.8541C198.032 72.8599 196.672 74.8669 195.583 76.8099C191.328 73.9534 188.938 70.7743 189.632 68.1831ZM197.107 77.7716C197.932 76.3006 198.926 74.7821 200.063 73.2575C200.297 74.4337 200.569 75.602 200.879 76.7605C201.19 77.9196 201.537 79.0684 201.921 80.2052C200.174 79.4534 198.557 78.6333 197.107 77.7716V77.7716ZM195.428 89.8125C194.123 88.5087 193.942 86.236 194.689 83.4478C195.029 82.1816 195.566 80.807 196.27 79.371C198.182 80.5066 200.363 81.5623 202.755 82.4932C203.673 84.8458 204.724 87.031 205.877 88.9733C205.329 89.2405 204.772 89.4892 204.207 89.719C200.195 91.3457 196.995 91.3798 195.428 89.8125V89.8125ZM211.992 85.1839C210.48 86.3147 208.961 87.3101 207.466 88.1434C206.588 86.6742 205.77 85.0526 205.026 83.3175C206.141 83.6937 207.293 84.0431 208.48 84.361C209.666 84.6788 210.838 84.9524 211.992 85.1839ZM223.527 93.9568C223.144 95.388 221.667 96.2403 220.236 95.8568C218.805 95.4733 217.953 93.9971 218.336 92.5658C218.72 91.1346 220.196 90.2823 221.627 90.6658C223.058 91.0492 223.911 92.5254 223.527 93.9568ZM221.229 88.7937C219.14 88.6537 217.168 90.004 216.606 92.1022C216.276 93.3318 216.497 94.5795 217.113 95.5894C217.094 95.5948 217.076 95.6031 217.057 95.6081C214.916 96.1818 212.162 94.5523 209.5 91.1374C209.126 90.656 208.768 90.1622 208.427 89.6568C210.397 88.5511 212.4 87.1845 214.371 85.606C216.909 85.996 219.327 86.1719 221.552 86.1445C221.486 87.0721 221.378 87.9566 221.229 88.7937ZM216.237 84.041C217.138 83.2486 218.013 82.4275 218.862 81.5791C219.73 80.7105 220.549 79.8312 221.326 78.9478C221.549 80.8221 221.651 82.6355 221.628 84.3407C219.94 84.3621 218.128 84.2639 216.237 84.041V84.041ZM232.891 79.7744C232.196 82.3667 228.534 83.925 223.417 84.2704C223.442 82.0179 223.26 79.5959 222.881 77.1011C224.489 75.0964 225.852 73.09 226.941 71.148C231.195 74.0044 233.585 77.1833 232.891 79.7744ZM225.415 70.185C224.589 71.6575 223.599 73.1769 222.46 74.703C222.226 73.5257 221.954 72.3564 221.644 71.1969C221.333 70.0379 220.986 68.889 220.602 67.7522C222.348 68.5038 223.965 69.3236 225.415 70.185V70.185ZM218.383 66.8618C218.968 68.4366 219.479 70.0379 219.913 71.6605C220.348 73.2824 220.706 74.9239 220.986 76.5796C219.916 77.8772 218.784 79.1229 217.595 80.3124C216.407 81.5004 215.165 82.632 213.871 83.7033C212.261 83.4336 210.61 83.0772 208.943 82.6307C207.277 82.1842 205.669 81.6673 204.139 81.0958C203.555 79.5211 203.044 77.9197 202.61 76.2971C202.167 74.645 201.809 72.9975 201.536 71.3812C202.606 70.0825 203.738 68.8357 204.928 67.6453C206.116 66.4573 207.358 65.3257 208.652 64.2543C210.262 64.5241 211.913 64.8805 213.58 65.327C215.246 65.7736 216.854 66.2904 218.383 66.8618ZM201.342 58.9002C203.07 58.6579 204.573 57.4118 205.052 55.6235C205.332 54.5803 205.217 53.5227 204.8 52.6092C205.016 52.4994 205.238 52.4103 205.466 52.3494C207.607 51.7758 210.361 53.4052 213.022 56.8201C213.397 57.3015 213.755 57.7953 214.096 58.3007C212.126 59.4064 210.123 60.773 208.152 62.3515C205.614 61.9615 203.197 61.7855 200.972 61.8129C201.045 60.7885 201.168 59.8142 201.342 58.9002ZM210.531 62.7735C212.043 61.6426 213.562 60.6472 215.057 59.814C215.935 61.2831 216.753 62.9048 217.497 64.6399C216.382 64.2637 215.23 63.9144 214.043 63.5966C212.857 63.2787 211.684 63.005 210.531 62.7735V62.7735ZM227.095 58.145C228.992 60.0417 228.51 63.9886 226.255 68.5874C224.342 67.4514 222.161 66.3953 219.768 65.4641C218.85 63.1117 217.799 60.9264 216.646 58.9841C217.194 58.7169 217.751 58.4682 218.316 58.2384C222.328 56.6118 225.528 56.5777 227.095 58.145Z" fill="#91D9EC"/>
<path d="M206.07 72.5872C205.431 74.9724 206.852 77.4331 209.237 78.0722C211.622 78.7113 214.083 77.2905 214.722 74.9054C215.361 72.5204 213.94 70.0595 211.555 69.4205C209.17 68.7814 206.709 70.202 206.07 72.5872ZM212.992 74.4418C212.608 75.8731 211.132 76.7254 209.701 76.3419C208.27 75.9584 207.417 74.4821 207.801 73.0509C208.184 71.6196 209.66 70.7673 211.092 71.1508C212.523 71.5343 213.375 73.0106 212.992 74.4418Z" fill="#91D9EC"/>
</g>
<path d="M142.921 130.418C142.367 130.837 141.813 131.294 141.261 131.779C140.709 131.294 140.155 130.837 139.601 130.418C135.485 127.309 131.78 126.427 129.169 127.934C128.773 128.163 128.409 128.446 128.08 128.776C127.466 128.459 126.771 128.277 126.034 128.277C123.565 128.277 121.556 130.286 121.556 132.755C121.556 135.216 123.551 137.218 126.008 137.232C126.091 138.221 126.24 139.254 126.454 140.322C120.717 142.271 117.077 145.35 117.077 148.878C117.077 152.404 120.715 155.483 126.449 157.431C125.27 163.369 126.116 168.059 129.169 169.822C131.78 171.329 135.485 170.446 139.601 167.337C140.155 166.919 140.709 166.462 141.261 165.977C141.813 166.462 142.367 166.919 142.921 167.337C147.038 170.446 150.743 171.329 153.353 169.822C153.641 169.655 153.913 169.461 154.164 169.241C154.613 169.393 155.092 169.479 155.592 169.479C158.062 169.479 160.071 167.47 160.071 165.001C160.071 162.851 158.547 161.051 156.524 160.621C156.443 159.604 156.288 158.537 156.067 157.434C161.805 155.485 165.445 152.406 165.445 148.878C165.445 145.351 161.807 142.272 156.072 140.324C156.41 138.62 156.587 137.016 156.587 135.557C156.587 131.935 155.53 129.191 153.353 127.934C150.743 126.427 147.038 127.309 142.921 130.418V130.418ZM123.347 132.755C123.347 131.273 124.552 130.068 126.034 130.068C127.516 130.068 128.721 131.273 128.721 132.755C128.721 134.237 127.516 135.442 126.034 135.442C124.552 135.442 123.347 134.237 123.347 132.755ZM133.851 140.446C133.186 141.445 132.552 142.464 131.952 143.504C131.351 144.545 130.783 145.605 130.25 146.682C129.549 144.929 128.984 143.205 128.565 141.552C130.191 141.094 131.966 140.72 133.851 140.446ZM118.869 148.878C118.869 146.194 122.003 143.741 126.856 142.083C127.415 144.264 128.215 146.554 129.228 148.867C128.192 151.221 127.399 153.512 126.849 155.67C122 154.013 118.869 151.56 118.869 148.878ZM128.571 156.205C128.987 154.571 129.554 152.846 130.258 151.079C130.788 152.155 131.353 153.213 131.952 154.252C132.552 155.291 133.186 156.311 133.851 157.309C131.968 157.036 130.194 156.662 128.571 156.205V156.205ZM130.065 168.27C128.468 167.348 127.704 165.2 127.704 162.313C127.704 161.003 127.868 159.536 128.176 157.967C130.317 158.568 132.696 159.024 135.248 159.304C136.743 161.339 138.325 163.177 139.941 164.755C139.481 165.155 139.007 165.539 138.521 165.908C135.066 168.517 131.984 169.378 130.065 168.27V168.27ZM144.867 159.512C143.699 160.996 142.49 162.35 141.261 163.542C140.033 162.35 138.823 160.996 137.655 159.512C138.83 159.587 140.033 159.626 141.261 159.626C142.489 159.626 143.693 159.587 144.867 159.512ZM158.279 165.001C158.279 166.482 157.074 167.688 155.592 167.688C154.111 167.688 152.905 166.482 152.905 165.001C152.905 163.519 154.111 162.313 155.592 162.313C157.074 162.313 158.279 163.519 158.279 165.001ZM154.724 160.608C152.669 161.014 151.114 162.828 151.114 165.001C151.114 166.274 151.651 167.421 152.506 168.238C152.489 168.248 152.474 168.26 152.457 168.27C150.538 169.378 147.456 168.517 144.001 165.908C143.515 165.539 143.042 165.155 142.581 164.755C144.197 163.177 145.779 161.339 147.274 159.304C149.827 159.024 152.207 158.568 154.35 157.966C154.527 158.879 154.651 159.761 154.724 160.608ZM148.671 157.309C149.337 156.311 149.97 155.291 150.57 154.252C151.184 153.188 151.747 152.127 152.269 151.073C152.969 152.825 153.538 154.551 153.956 156.204C152.331 156.661 150.556 157.035 148.671 157.309V157.309ZM163.654 148.878C163.654 151.562 160.519 154.015 155.666 155.673C155.107 153.49 154.305 151.198 153.293 148.886C154.328 146.534 155.124 144.243 155.674 142.085C160.522 143.743 163.654 146.195 163.654 148.878ZM153.95 141.55C153.534 143.186 152.971 144.91 152.266 146.679C151.735 145.602 151.169 144.543 150.57 143.504C149.97 142.464 149.337 141.445 148.671 140.446C150.553 140.72 152.327 141.093 153.95 141.55V141.55ZM146.298 140.16C147.271 141.53 148.178 142.944 149.018 144.399C149.858 145.853 150.628 147.346 151.327 148.873C150.629 150.404 149.859 151.9 149.018 153.356C148.178 154.811 147.271 156.226 146.298 157.596C144.673 157.752 142.986 157.835 141.261 157.835C139.536 157.835 137.849 157.752 136.224 157.596C135.251 156.226 134.344 154.811 133.504 153.356C132.649 151.875 131.877 150.377 131.195 148.886C131.892 147.354 132.663 145.857 133.504 144.399C134.344 142.945 135.251 141.53 136.224 140.16C137.849 140.004 139.536 139.921 141.261 139.921C142.986 139.921 144.673 140.004 146.298 140.16ZM127.777 136.88C129.383 136.199 130.513 134.606 130.513 132.755C130.513 131.675 130.128 130.683 129.489 129.909C129.669 129.747 129.86 129.603 130.065 129.486C131.984 128.377 135.066 129.238 138.521 131.848C139.007 132.216 139.481 132.601 139.941 133.001C138.325 134.578 136.743 136.417 135.248 138.452C132.695 138.732 130.315 139.187 128.173 139.79C127.978 138.781 127.845 137.808 127.777 136.88ZM137.655 138.243C138.823 136.76 140.033 135.405 141.261 134.213C142.49 135.405 143.699 136.76 144.867 138.243C143.693 138.169 142.489 138.129 141.261 138.129C140.033 138.129 138.83 138.169 137.655 138.243V138.243ZM152.457 129.486C154.78 130.827 155.336 134.764 154.348 139.79C152.207 139.187 149.826 138.732 147.274 138.452C145.779 136.417 144.197 134.578 142.581 133.001C143.042 132.601 143.515 132.216 144.001 131.848C147.456 129.238 150.538 128.377 152.457 129.486Z" fill="#91D9EC"/>
<path d="M135.887 148.878C135.887 151.347 137.896 153.356 140.365 153.356C142.835 153.356 144.844 151.347 144.844 148.878C144.844 146.409 142.834 144.399 140.365 144.399C137.896 144.399 135.887 146.409 135.887 148.878ZM143.052 148.878C143.052 150.36 141.847 151.565 140.365 151.565C138.884 151.565 137.678 150.36 137.678 148.878C137.678 147.396 138.884 146.191 140.365 146.191C141.847 146.191 143.052 147.396 143.052 148.878Z" fill="#91D9EC"/>
<g clip-path="url(#clip3_593_13827)">
<path d="M164.475 13.7937C164.529 13.409 164.567 13.0095 164.594 12.5997C165.004 12.5731 165.403 12.5347 165.788 12.4811C168.644 12.0829 170.457 10.9673 170.893 9.33931C170.96 9.0925 170.992 8.83651 170.991 8.57599C171.359 8.45858 171.706 8.2561 171.997 7.96467C172.973 6.98852 172.973 5.40001 171.997 4.4239C171.025 3.45131 169.444 3.44839 168.467 4.41408C168.044 4.05587 167.576 3.70656 167.07 3.36885C168.567 0.330817 168.789 -2.32548 167.394 -3.71996C166 -5.11398 163.345 -4.89305 160.308 -3.39652C158.427 -6.20963 156.239 -7.7292 154.335 -7.21927C152.707 -6.78309 151.591 -4.96961 151.193 -2.11329C151.14 -1.72861 151.101 -1.32914 151.075 -0.919283C150.665 -0.892769 150.265 -0.854304 149.881 -0.800715C147.024 -0.40255 145.211 0.71311 144.775 2.34069C144.727 2.52072 144.696 2.70498 144.684 2.89088C144.446 3.00852 144.223 3.16402 144.025 3.36164C143.049 4.33779 143.049 5.9263 144.025 6.90241C144.875 7.75229 146.189 7.86148 147.159 7.23148C147.592 7.60157 148.075 7.96216 148.599 8.31081C147.101 11.3492 146.879 14.0058 148.274 15.4003C149.668 16.7945 152.324 16.5734 155.361 15.0765C155.901 15.8837 156.465 16.5877 157.042 17.1642C158.474 18.5962 159.976 19.2633 161.333 18.8996C162.961 18.4634 164.077 16.65 164.475 13.7937V13.7937ZM171.289 5.13202C171.875 5.71777 171.875 6.67072 171.289 7.25647C170.703 7.84221 169.751 7.84221 169.165 7.25647C168.579 6.67072 168.579 5.71777 169.165 5.13202C169.75 4.54628 170.703 4.54628 171.289 5.13202ZM164.097 6.24399C163.965 5.58622 163.812 4.93285 163.638 4.28487C163.464 3.63562 163.27 2.99207 163.055 2.35521C164.025 2.77138 164.93 3.2293 165.749 3.71746C165.287 4.54072 164.733 5.39067 164.097 6.24399ZM166.686 -3.0118C167.747 -1.95084 167.478 0.258071 166.215 2.83188C165.132 2.19034 163.91 1.60149 162.595 1.08749C162.074 -0.252351 161.482 -1.47138 160.846 -2.54208C163.418 -3.80368 165.626 -4.07222 166.686 -3.0118ZM159.954 -2.07296C160.436 -1.26237 160.893 -0.356616 161.314 0.620199C160.679 0.404705 160.037 0.209852 159.39 0.0359468C158.742 -0.137662 158.088 -0.290479 157.43 -0.422268C158.283 -1.05813 159.132 -1.61168 159.954 -2.07296V-2.07296ZM154.594 -6.25175C155.59 -6.51869 156.741 -5.97115 157.882 -4.83005C158.4 -4.31186 158.916 -3.66752 159.414 -2.92542C158.33 -2.31689 157.209 -1.5563 156.09 -0.658358C154.694 -0.871594 153.342 -0.973246 152.08 -0.958122C152.104 -1.29814 152.139 -1.63727 152.185 -1.97493C152.519 -4.37229 153.397 -5.93104 154.594 -6.25175V-6.25175ZM152.205 3.06177C152.08 2.01378 152.023 0.99999 152.037 0.0432662C152.994 0.0287767 154.008 0.0860627 155.056 0.211017C154.562 0.645518 154.071 1.10575 153.585 1.59122C153.1 2.0767 152.639 2.568 152.205 3.06177ZM144.733 6.19425C144.147 5.6085 144.147 4.65555 144.733 4.0698C145.319 3.48406 146.272 3.48406 146.858 4.0698C147.443 4.65555 147.443 5.6085 146.858 6.19425C146.272 6.78003 145.319 6.78003 144.733 6.19425ZM147.875 6.52508C148.527 5.55237 148.425 4.2203 147.566 3.36161C147.063 2.85835 146.397 2.61674 145.736 2.63235C145.738 2.62174 145.739 2.61069 145.742 2.60019C146.063 1.40327 147.622 0.525306 150.019 0.191299C150.357 0.144742 150.696 0.109494 151.036 0.0856147C151.021 1.34811 151.122 2.70016 151.336 4.09568C150.437 5.21556 149.676 6.33671 149.068 7.42168C148.637 7.13073 148.239 6.83104 147.875 6.52508ZM151.572 5.43645C151.704 6.0942 151.856 6.74757 152.03 7.39554C152.208 8.05877 152.405 8.70079 152.615 9.32407C151.645 8.90802 150.739 8.45074 149.92 7.96265C150.381 7.13947 150.935 6.28958 151.572 5.43645V5.43645ZM148.982 14.6922C147.921 13.6313 148.191 11.4224 149.454 8.84872C150.537 9.49025 151.761 10.0791 153.074 10.5931C153.596 11.9322 154.186 13.1524 154.822 14.2227C152.25 15.4841 150.043 15.7526 148.982 14.6922ZM155.715 13.753C155.233 12.9416 154.774 12.0375 154.353 11.0597C154.989 11.2755 155.631 11.4705 156.279 11.6445C156.927 11.8181 157.58 11.9709 158.238 12.1027C157.386 12.7383 156.537 13.2918 155.715 13.753V13.753ZM159.289 11.2777C158.363 11.1206 157.445 10.9202 156.538 10.6769C155.631 10.4341 154.737 10.1485 153.857 9.82116C153.528 8.94037 153.241 8.04434 152.997 7.13614C152.754 6.22909 152.554 5.31112 152.397 4.38525C152.977 3.68109 153.611 2.98137 154.293 2.29935C154.975 1.61733 155.675 0.983334 156.379 0.40263C157.305 0.559701 158.223 0.760175 159.13 1.00339C160.054 1.25091 160.951 1.53805 161.81 1.85756C162.14 2.73886 162.427 3.63542 162.671 4.54419C162.914 5.45125 163.115 6.36922 163.272 7.29508C162.691 7.99925 162.057 8.69893 161.375 9.38095C160.693 10.063 159.993 10.697 159.289 11.2777ZM167.907 5.25253C167.542 6.15668 167.725 7.23283 168.457 7.96466C168.884 8.39162 169.428 8.63182 169.986 8.68534C169.979 8.82026 169.96 8.95272 169.926 9.08018C169.605 10.2771 168.047 11.155 165.649 11.4891C165.312 11.5357 164.973 11.5709 164.633 11.5948C164.648 10.3322 164.546 8.98024 164.333 7.58472C165.231 6.46492 165.992 5.34388 166.601 4.2591C167.076 4.58067 167.513 4.91263 167.907 5.25253ZM163.463 8.61871C163.588 9.66667 163.646 10.6804 163.631 11.6372C162.674 11.6516 161.661 11.5944 160.613 11.4695C161.106 11.0349 161.598 10.5746 162.083 10.0891C162.569 9.60367 163.029 9.11244 163.463 8.61871V8.61871ZM161.074 17.9321C159.626 18.3202 157.85 16.9834 156.253 14.6063C157.338 13.9977 158.459 13.2369 159.579 12.3388C160.974 12.552 162.326 12.6536 163.589 12.6385C163.565 12.9786 163.53 13.3177 163.483 13.6553C163.149 16.0527 162.271 17.6114 161.074 17.9321Z" fill="#91D9EC"/>
<path d="M159.959 3.71569C158.983 2.73955 157.394 2.73955 156.418 3.71569C155.442 4.69184 155.442 6.28035 156.418 7.25646C157.394 8.23256 158.983 8.23256 159.959 7.25646C160.935 6.28035 160.935 4.69184 159.959 3.71569ZM157.126 6.54833C156.54 5.96259 156.54 5.00964 157.126 4.42389C157.712 3.83815 158.665 3.83815 159.251 4.42389C159.836 5.00964 159.836 5.96259 159.251 6.54833C158.665 7.13412 157.712 7.13408 157.126 6.54833Z" fill="#91D9EC"/>
</g>
<g clip-path="url(#clip4_593_13827)">
<path d="M106.443 82.9704C106.546 82.2299 106.62 81.4611 106.671 80.6722C107.46 80.6211 108.229 80.547 108.97 80.4439C114.468 79.6774 117.959 77.5299 118.798 74.3963C118.925 73.9212 118.987 73.4285 118.986 72.927C119.694 72.701 120.362 72.3112 120.923 71.7503C122.802 69.8713 122.802 66.8136 120.923 64.9347C119.051 63.0626 116.009 63.0569 114.128 64.9158C113.313 64.2263 112.413 63.5539 111.437 62.9038C114.32 57.056 114.747 51.9429 112.062 49.2587C109.379 46.5753 104.268 47.0006 98.4226 49.8813C94.8011 44.4663 90.5894 41.5413 86.9244 42.5229C83.7912 43.3625 81.6436 46.8532 80.8772 52.3513C80.7741 53.0918 80.7001 53.8607 80.649 54.6497C79.8601 54.7007 79.0911 54.7747 78.3506 54.8779C72.8526 55.6443 69.3618 57.7918 68.5226 60.9247C68.4301 61.2713 68.3714 61.6259 68.3471 61.9838C67.8898 62.2102 67.4596 62.5096 67.0792 62.89C65.2003 64.7689 65.2003 67.8266 67.0792 69.7055C68.7152 71.3415 71.2439 71.5516 73.111 70.339C73.946 71.0513 74.8756 71.7454 75.8838 72.4165C73.0003 78.2651 72.5737 83.3787 75.258 86.0631C77.9416 88.7467 83.0532 88.3211 88.8996 85.4398C89.9387 86.9935 91.025 88.3486 92.1347 89.4583C94.8912 92.2148 97.7832 93.4988 100.396 92.7988C103.529 91.9592 105.677 88.4685 106.443 82.9704V82.9704ZM119.56 66.2977C120.687 67.4252 120.687 69.2596 119.56 70.3871C118.432 71.5146 116.598 71.5146 115.47 70.3871C114.343 69.2596 114.343 67.4252 115.47 66.2977C116.598 65.1703 118.432 65.1703 119.56 66.2977ZM105.715 68.4382C105.461 67.172 105.167 65.9144 104.833 64.6671C104.498 63.4173 104.123 62.1786 103.71 60.9527C105.578 61.7538 107.319 62.6352 108.895 63.5749C108.007 65.1595 106.94 66.7956 105.715 68.4382ZM110.699 50.6218C112.741 52.664 112.223 56.9159 109.792 61.8702C107.707 60.6353 105.356 59.5019 102.825 58.5125C101.821 55.9334 100.682 53.5869 99.4578 51.526C104.409 49.0975 108.658 48.5806 110.699 50.6218ZM97.7414 52.429C98.6684 53.9893 99.5487 55.7327 100.358 57.613C99.1356 57.1982 97.9004 56.8231 96.6541 56.4884C95.4068 56.1542 94.1492 55.86 92.8831 55.6064C94.5238 54.3824 96.1581 53.3169 97.7414 52.429V52.429ZM87.4236 44.3853C89.3404 43.8714 91.5559 44.9254 93.7523 47.1219C94.7498 48.1193 95.7418 49.3596 96.7014 50.7881C94.614 51.9594 92.457 53.4235 90.3023 55.1519C87.616 54.7415 85.0137 54.5458 82.5834 54.5749C82.6293 53.9204 82.6972 53.2676 82.7868 52.6177C83.4297 48.003 85.1197 45.0026 87.4236 44.3853V44.3853ZM82.8246 62.3127C82.5842 60.2955 82.474 58.344 82.5018 56.5025C84.3434 56.4746 86.2948 56.5848 88.312 56.8254C87.3616 57.6617 86.4159 58.5476 85.4814 59.4821C84.5469 60.4166 83.661 61.3623 82.8246 62.3127ZM68.4424 68.3424C67.3149 67.2149 67.3149 65.3806 68.4424 64.2531C69.5699 63.1256 71.4042 63.1256 72.5317 64.2531C73.6592 65.3806 73.6592 67.2149 72.5317 68.3424C71.4042 69.47 69.5699 69.47 68.4424 68.3424ZM74.4903 68.9792C75.7452 67.1069 75.5478 64.5428 73.8949 62.8899C72.9262 61.9212 71.6443 61.4561 70.3721 61.4861C70.3772 61.4657 70.3792 61.4445 70.3846 61.4243C71.002 59.1203 74.0024 57.4303 78.6169 56.7874C79.2669 56.6978 79.9196 56.6299 80.5741 56.584C80.545 59.0141 80.7406 61.6167 81.1512 64.3029C79.4219 66.4585 77.9574 68.6166 76.7857 70.7051C75.9564 70.145 75.1904 69.5682 74.4903 68.9792ZM81.6057 66.8837C81.8594 68.1498 82.1535 69.4075 82.4877 70.6548C82.8299 71.9314 83.209 73.1672 83.614 74.367C81.7474 73.5661 80.0022 72.6859 78.4258 71.7464C79.3141 70.1618 80.3806 68.5259 81.6057 66.8837V66.8837ZM76.6211 84.6999C74.579 82.6578 75.0974 78.406 77.5285 73.452C79.6145 74.6868 81.9696 75.8203 84.4983 76.8096C85.5013 79.3872 86.6382 81.7361 87.8619 83.7963C82.9108 86.2243 78.6623 86.7411 76.6211 84.6999ZM89.5805 82.8921C88.6526 81.3303 87.7692 79.5901 86.9597 77.7078C88.1827 78.1232 89.4189 78.4986 90.6664 78.8334C91.9137 79.1676 93.1714 79.4618 94.4375 79.7155C92.7972 80.9391 91.1633 82.0044 89.5805 82.8921V82.8921ZM96.4607 78.1275C94.6785 77.8252 92.9115 77.4393 91.1655 76.9711C89.4201 76.5036 87.6978 75.9539 86.0043 75.3238C85.3707 73.6284 84.8186 71.9036 84.3499 70.1554C83.8817 68.4095 83.4959 66.6425 83.1935 64.8603C84.3113 63.5049 85.5317 62.158 86.8445 60.8452C88.1573 59.5323 89.5042 58.312 90.8596 57.1942C92.6418 57.4965 94.4088 57.8824 96.1548 58.3506C97.9326 58.827 99.6606 59.3797 101.314 59.9948C101.948 61.6912 102.501 63.417 102.97 65.1662C103.439 66.9122 103.824 68.6792 104.127 70.4614C103.009 71.8168 101.789 73.1636 100.476 74.4764C99.163 75.7893 97.8161 77.0097 96.4607 78.1275ZM113.05 66.5297C112.346 68.2701 112.698 70.3416 114.107 71.7503C114.929 72.5721 115.976 73.0345 117.052 73.1375C117.038 73.3972 117.002 73.6522 116.936 73.8975C116.318 76.2014 113.318 77.8913 108.703 78.5343C108.054 78.6241 107.401 78.6919 106.746 78.7378C106.775 76.3075 106.58 73.7051 106.169 71.0189C107.898 68.8634 109.363 66.7055 110.534 64.6175C111.45 65.2365 112.292 65.8754 113.05 66.5297ZM104.496 73.0092C104.736 75.0264 104.847 76.9778 104.819 78.8194C102.977 78.8472 101.026 78.7371 99.0085 78.4966C99.9589 77.6602 100.904 76.7741 101.839 75.8396C102.773 74.9052 103.659 73.9596 104.496 73.0092V73.0092ZM99.8968 90.9365C97.1087 91.6835 93.69 89.1103 90.6174 84.5347C92.7053 83.3633 94.863 81.8988 97.0182 80.17C99.7044 80.5804 102.307 80.776 104.737 80.7469C104.691 81.4014 104.623 82.0542 104.534 82.7042C103.891 87.3187 102.201 90.3192 99.8968 90.9365Z" fill="#91D9EC"/>
<path d="M97.7496 63.5718C95.8706 61.6929 92.813 61.6929 90.934 63.5718C89.055 65.4508 89.0551 68.5085 90.934 70.3874C92.8129 72.2663 95.8707 72.2663 97.7496 70.3874C99.6285 68.5085 99.6285 65.4508 97.7496 63.5718ZM92.2971 69.0244C91.1696 67.8969 91.1696 66.0625 92.2971 64.935C93.4246 63.8076 95.2589 63.8076 96.3864 64.935C97.5139 66.0625 97.5139 67.8969 96.3864 69.0244C95.259 70.1519 93.4246 70.1519 92.2971 69.0244Z" fill="#91D9EC"/>
</g>
<g filter="url(#filter0_d_593_13827)">
<rect x="84.25" y="43.5" width="62" height="62" rx="8" fill="white"/>
<path d="M129.88 75.8154C129.548 75.3761 129.186 74.9371 128.802 74.4997C129.186 74.0622 129.548 73.6232 129.88 73.1839C132.344 69.9215 133.043 66.9853 131.849 64.9163C131.668 64.6026 131.443 64.3138 131.182 64.0531C131.433 63.5665 131.577 63.0161 131.577 62.4318C131.577 60.4748 129.985 58.8824 128.028 58.8824C126.078 58.8824 124.491 60.4636 124.48 62.411C123.696 62.4764 122.877 62.5949 122.031 62.7646C120.487 58.2177 118.046 55.333 115.25 55.333C112.455 55.333 110.015 58.216 108.471 62.7605C103.765 61.8265 100.049 62.4965 98.6511 64.9163C97.4567 66.9853 98.1562 69.9215 100.62 73.1839C100.952 73.6232 101.314 74.0622 101.698 74.4997C101.314 74.9371 100.952 75.3761 100.62 75.8154C98.1562 79.0778 97.4567 82.0141 98.6511 84.0826C98.7835 84.3113 98.9376 84.5266 99.1113 84.7255C98.9911 85.0816 98.9229 85.4615 98.9229 85.8577C98.9229 87.8147 100.515 89.4071 102.472 89.4071C104.176 89.4071 105.603 88.1997 105.943 86.5958C106.749 86.5319 107.595 86.4093 108.469 86.2337C110.013 90.7812 112.454 93.6663 115.25 93.6663C118.045 93.6663 120.485 90.7827 122.03 86.2376C123.38 86.5056 124.651 86.6456 125.807 86.6456C128.678 86.6456 130.853 85.8082 131.849 84.083C133.043 82.0141 132.344 79.0778 129.88 75.8154V75.8154ZM128.028 60.3021C129.202 60.3021 130.157 61.2574 130.157 62.4317C130.157 63.606 129.202 64.5613 128.028 64.5613C126.854 64.5613 125.898 63.606 125.898 62.4317C125.898 61.2575 126.854 60.3021 128.028 60.3021ZM121.933 68.6267C121.141 68.0995 120.333 67.5977 119.509 67.1222C118.684 66.6458 117.844 66.1957 116.99 65.7728C118.38 65.2172 119.746 64.7692 121.056 64.4379C121.419 65.7258 121.715 67.1333 121.933 68.6267ZM115.25 56.7528C117.377 56.7528 119.321 59.2369 120.635 63.0832C118.907 63.5258 117.092 64.16 115.258 64.9628C113.393 64.1423 111.578 63.5135 109.867 63.0778C111.181 59.2346 113.124 56.7528 115.25 56.7528ZM109.443 64.442C110.738 64.7718 112.105 65.2213 113.505 65.7792C112.653 66.1996 111.814 66.6475 110.991 67.1222C110.167 67.5977 109.359 68.0995 108.568 68.6267C108.785 67.1349 109.081 65.7289 109.443 64.442V64.442ZM99.881 65.6263C100.612 64.3604 102.314 63.7556 104.602 63.7556C105.641 63.7556 106.803 63.8849 108.047 64.129C107.57 65.8261 107.209 67.7118 106.987 69.7341C105.374 70.9193 103.917 72.1726 102.667 73.4534C102.35 73.0886 102.045 72.7133 101.753 72.3282C99.6851 69.5902 99.0027 67.1475 99.881 65.6263V65.6263ZM106.822 77.3574C105.646 76.4321 104.573 75.4732 103.628 74.4997C104.573 73.5261 105.646 72.5673 106.822 71.642C106.763 72.5725 106.732 73.5264 106.732 74.4997C106.732 75.473 106.763 76.4268 106.822 77.3574ZM102.472 87.9873C101.298 87.9873 100.343 87.0321 100.343 85.8577C100.343 84.6834 101.298 83.7281 102.472 83.7281C103.647 83.7281 104.602 84.6834 104.602 85.8577C104.602 87.0321 103.647 87.9873 102.472 87.9873ZM105.953 85.1694C105.632 83.5408 104.194 82.3083 102.472 82.3083C101.463 82.3083 100.554 82.7336 99.9067 83.4118C99.8987 83.3986 99.8887 83.3864 99.881 83.3731C99.0027 81.8517 99.6851 79.4091 101.753 76.6712C102.045 76.286 102.35 75.9108 102.667 75.546C103.917 76.8267 105.374 78.0802 106.987 79.2653C107.209 81.2884 107.57 83.175 108.048 84.8727C107.324 85.013 106.625 85.1115 105.953 85.1694ZM108.568 80.3726C109.359 80.8998 110.167 81.4016 110.991 81.8771C111.834 82.3638 112.675 82.8099 113.511 83.2238C112.121 83.7788 110.754 84.2292 109.444 84.5609C109.081 83.2731 108.785 81.8658 108.568 80.3726V80.3726ZM115.25 92.2466C113.123 92.2466 111.179 89.7624 109.865 85.9164C111.594 85.4732 113.411 84.837 115.243 84.0353C117.108 84.8554 118.923 85.4865 120.633 85.9221C119.319 89.765 117.376 92.2466 115.25 92.2466ZM121.058 84.5563C119.761 84.2262 118.395 83.7799 116.993 83.2213C117.846 82.8007 118.685 82.3524 119.509 81.8771C120.333 81.4016 121.141 80.8998 121.933 80.3726C121.716 81.864 121.419 83.2697 121.058 84.5563V84.5563ZM122.159 78.492C121.074 79.2626 119.952 79.9819 118.799 80.6473C117.647 81.3128 116.464 81.9235 115.254 82.4773C114.041 81.9243 112.855 81.3136 111.701 80.6473C110.548 79.9819 109.426 79.2626 108.341 78.492C108.217 77.204 108.151 75.867 108.151 74.4997C108.151 73.1323 108.217 71.7954 108.341 70.5074C109.426 69.7367 110.548 69.0175 111.701 68.352C112.875 67.6743 114.062 67.0623 115.244 66.5216C116.457 67.0746 117.644 67.6855 118.799 68.352C119.952 69.0175 121.074 69.7368 122.159 70.5074C122.283 71.7954 122.349 73.1323 122.349 74.4997C122.349 75.867 122.283 77.204 122.159 78.492ZM124.758 63.8131C125.298 65.0859 126.561 65.9811 128.028 65.9811C128.884 65.9811 129.67 65.6766 130.284 65.1701C130.412 65.3123 130.526 65.4642 130.619 65.6263C131.497 67.1475 130.815 69.5902 128.747 72.3282C128.455 72.7134 128.15 73.0886 127.833 73.4534C126.583 72.1726 125.126 70.9192 123.513 69.7341C123.291 67.7111 122.93 65.8247 122.453 64.1271C123.252 63.9727 124.023 63.8671 124.758 63.8131ZM123.678 71.642C124.854 72.5673 125.928 73.5261 126.872 74.4997C125.928 75.4732 124.854 76.4321 123.678 77.3574C123.738 76.4268 123.769 75.473 123.769 74.4997C123.769 73.5264 123.738 72.5725 123.678 71.642V71.642ZM130.619 83.3731C129.556 85.2141 126.436 85.6544 122.453 84.8717C122.93 83.1743 123.291 81.288 123.513 79.2653C125.126 78.0802 126.583 76.8267 127.833 75.546C128.15 75.9107 128.455 76.286 128.747 76.6712C130.815 79.4092 131.497 81.8518 130.619 83.3731Z" fill="#09A4CD"/>
<path d="M115.251 70.2402C113.294 70.2402 111.701 71.8326 111.701 73.7896C111.701 75.7466 113.294 77.3389 115.251 77.3389C117.207 77.3389 118.8 75.7465 118.8 73.7896C118.8 71.8326 117.208 70.2402 115.251 70.2402ZM115.251 75.9193C114.076 75.9193 113.121 74.964 113.121 73.7897C113.121 72.6153 114.076 71.6601 115.251 71.6601C116.425 71.6601 117.38 72.6153 117.38 73.7897C117.38 74.964 116.425 75.9193 115.251 75.9193Z" fill="#09A4CD"/>
</g>
<defs>
<filter id="filter0_d_593_13827" x="80.25" y="39.5" width="70" height="70" filterUnits="userSpaceOnUse" color-interpolation-filters="sRGB">
<feFlood flood-opacity="0" result="BackgroundImageFix"/>
<feColorMatrix in="SourceAlpha" type="matrix" values="0 0 0 0 0 0 0 0 0 0 0 0 0 0 0 0 0 0 127 0" result="hardAlpha"/>
<feOffset/>
<feGaussianBlur stdDeviation="2"/>
<feComposite in2="hardAlpha" operator="out"/>
<feColorMatrix type="matrix" values="0 0 0 0 0 0 0 0 0 0 0 0 0 0 0 0 0 0 0.25 0"/>
<feBlend mode="normal" in2="BackgroundImageFix" result="effect1_dropShadow_593_13827"/>
<feBlend mode="normal" in="SourceGraphic" in2="effect1_dropShadow_593_13827" result="shape"/>
</filter>
<clipPath id="clip0_593_13827">
<rect width="60.0544" height="60.0544" fill="white" transform="translate(-11.3105 131.697) rotate(-75)"/>
</clipPath>
<clipPath id="clip1_593_13827">
<rect width="59.5324" height="59.5324" fill="white" transform="translate(76.4014 -2.95215) rotate(105)"/>
</clipPath>
<clipPath id="clip2_593_13827">
<rect width="58.0416" height="58.0416" fill="white" transform="translate(175.718 94.5) rotate(-75)"/>
</clipPath>
<clipPath id="clip3_593_13827">
<rect width="32.4482" height="32.4482" fill="white" transform="translate(157.834 -17.1045) rotate(45)"/>
</clipPath>
<clipPath id="clip4_593_13827">
<rect width="62.4591" height="62.4591" fill="white" transform="translate(93.6602 23.4951) rotate(45)"/>
</clipPath>
</defs>
</svg>
