<svg width="31" height="46" viewBox="0 0 31 46" fill="none" xmlns="http://www.w3.org/2000/svg">
<path d="M3.99992 46.0002L6.23015 40.6749L0.503138 41.4061L3.99992 46.0002ZM3.85875 40.1736C3.74851 38.8533 3.6683 37.5776 3.61665 36.3451L2.61753 36.387C2.66979 37.6339 2.75088 38.9234 2.86221 40.2568L3.85875 40.1736ZM3.54714 32.5239C3.55642 31.1849 3.60275 29.9034 3.68371 28.6767L2.68588 28.6108C2.60356 29.8581 2.55657 31.1594 2.54717 32.5169L3.54714 32.5239ZM4.06657 24.8738C4.24972 23.5469 4.47852 22.295 4.74878 21.1139L3.77397 20.8908C3.49683 22.1021 3.26289 23.3829 3.07596 24.737L4.06657 24.8738ZM5.78829 17.4594C6.2251 16.1974 6.7172 15.0347 7.25691 13.9634L6.36385 13.5135C5.80317 14.6264 5.29396 15.8303 4.8433 17.1323L5.78829 17.4594ZM9.21623 10.7286C9.98597 9.66571 10.8141 8.72285 11.6878 7.8867L10.9964 7.16424C10.0791 8.04206 9.21136 9.03041 8.40631 10.142L9.21623 10.7286ZM14.6376 5.55003C15.711 4.8513 16.8266 4.26755 17.9674 3.78124L17.5752 2.86135C16.3852 3.36867 15.2177 3.9792 14.092 4.71196L14.6376 5.55003ZM21.5545 2.56916C22.7982 2.24701 24.0494 2.01418 25.2872 1.84975L25.1556 0.858456C23.8831 1.0275 22.5916 1.26752 21.3037 1.6011L21.5545 2.56916ZM29.0904 1.53482C29.7388 1.51046 30.3762 1.50002 30.9991 1.5L30.9991 0.5C30.365 0.50002 29.7151 0.510649 29.0529 0.53552L29.0904 1.53482Z" fill="black"/>
</svg>
