<svg width="16" height="17" viewBox="0 0 16 17" fill="none" xmlns="http://www.w3.org/2000/svg">
<path fill-rule="evenodd" clip-rule="evenodd" d="M5.19402 10.6798L5.68069 8.40646C5.75154 8.09054 5.91113 7.80143 6.14069 7.57312L10.5874 3.16646C11.0383 2.70711 11.6505 2.44164 12.294 2.42646C12.7794 2.4195 13.2474 2.60671 13.594 2.94646C14.3515 3.84143 14.2537 5.17794 13.374 5.95312L8.92736 10.3998C8.69905 10.6293 8.40994 10.7889 8.09402 10.8598L5.82069 11.3465H5.69402C5.52783 11.3528 5.3691 11.2772 5.26931 11.1442C5.16952 11.0111 5.14138 10.8376 5.19402 10.6798ZM6.84736 8.28646C6.75395 8.37698 6.68906 8.49285 6.66069 8.61979L6.33402 10.1731L7.88736 9.83979C8.0143 9.81142 8.13017 9.74653 8.22069 9.65312L12.6674 5.20646C13.1545 4.81647 13.2511 4.11344 12.8874 3.60646C12.7281 3.45426 12.5142 3.37257 12.294 3.37979C11.9144 3.39503 11.5557 3.55766 11.294 3.83312L6.84736 8.28646Z" fill="#404A51"/>
<path d="M13.2734 7.78626C12.9987 7.78985 12.777 8.01162 12.7734 8.28626V12.0796C12.7823 12.6158 12.5756 13.1331 12.1995 13.5154C11.8235 13.8977 11.3096 14.113 10.7734 14.1129H4.42005C3.31163 14.0912 2.42346 13.1882 2.42005 12.0796V5.75293C2.43825 4.64299 3.3433 3.75278 4.45339 3.75293H8.24672C8.52286 3.75293 8.74672 3.52907 8.74672 3.25293C8.74672 2.97679 8.52286 2.75293 8.24672 2.75293H4.42005C2.75772 2.75283 1.40499 4.0907 1.38672 5.75293V12.0796C1.38672 13.7549 2.74479 15.1129 4.42005 15.1129H10.7467C12.4194 15.1093 13.7734 13.7523 13.7734 12.0796V8.28626C13.7698 8.01162 13.548 7.78985 13.2734 7.78626Z" fill="#404A51"/>
</svg>
