<svg width="16" height="16" viewBox="0 0 16 16" fill="none" xmlns="http://www.w3.org/2000/svg">
<path d="M12.526 4.66707C12.2351 4.66707 11.9993 4.90287 11.9993 5.19374V11.0871C11.9993 12.3279 10.9935 13.3337 9.75268 13.3337H5.96602C4.72522 13.3337 3.71935 12.3279 3.71935 11.0871V5.19374C3.71935 4.90287 3.48355 4.66707 3.19268 4.66707C2.90181 4.66707 2.66602 4.90287 2.66602 5.19374V11.0871C2.6843 12.915 4.17134 14.3872 5.99935 14.3871H9.78602C11.601 14.369 13.068 12.9021 13.086 11.0871V5.19374C13.0863 5.04809 13.0263 4.90882 12.9202 4.80903C12.8141 4.70924 12.6714 4.65785 12.526 4.66707Z" fill="#404A51"/>
<path fill-rule="evenodd" clip-rule="evenodd" d="M12.526 3.72016H3.19268C2.90181 3.72016 2.66602 3.48437 2.66602 3.1935C2.66602 2.90263 2.90181 2.66683 3.19268 2.66683H4.95935L5.74602 1.8135C6.04673 1.50777 6.45718 1.33495 6.88602 1.3335H8.83268C9.25526 1.33349 9.66054 1.50136 9.95935 1.80016L10.7593 2.66683H12.526C12.8169 2.66683 13.0527 2.90263 13.0527 3.1935C13.0527 3.48437 12.8169 3.72016 12.526 3.72016ZM8.83268 2.38683H6.88602C6.75274 2.38688 6.62431 2.43682 6.52602 2.52683L6.39935 2.66016H9.31935L9.19268 2.52683C9.09511 2.43567 8.96621 2.38554 8.83268 2.38683Z" fill="#404A51"/>
<path d="M5.35938 5.86035V7.86035C5.35938 8.13649 5.58323 8.36035 5.85938 8.36035C6.13552 8.36035 6.35938 8.13649 6.35938 7.86035V5.86035C6.35938 5.58421 6.13552 5.36035 5.85938 5.36035C5.58323 5.36035 5.35938 5.58421 5.35938 5.86035Z" fill="#404A51"/>
<path d="M7.35938 5.86035V11.1937C7.35938 11.4698 7.58323 11.6937 7.85938 11.6937C8.13552 11.6937 8.35938 11.4698 8.35938 11.1937V5.86035C8.35938 5.58421 8.13552 5.36035 7.85938 5.36035C7.58323 5.36035 7.35938 5.58421 7.35938 5.86035Z" fill="#404A51"/>
<path d="M9.35938 5.86035V7.86035C9.35938 8.13649 9.58323 8.36035 9.85938 8.36035C10.1355 8.36035 10.3594 8.13649 10.3594 7.86035V5.86035C10.3594 5.58421 10.1355 5.36035 9.85938 5.36035C9.58323 5.36035 9.35938 5.58421 9.35938 5.86035Z" fill="#404A51"/>
</svg>
