<svg width="18" height="20" viewBox="0 0 18 20" fill="none" xmlns="http://www.w3.org/2000/svg">
<path fill-rule="evenodd" clip-rule="evenodd" d="M13.29 0.000200281H7.99997C6.04486 0.00923052 4.38277 1.43025 4.06997 3.3602C2.15497 3.61915 0.722427 5.24781 0.709972 7.1802V15.3502C0.707309 16.5843 1.19636 17.7686 2.06899 18.6412C2.94161 19.5138 4.1259 20.0029 5.35997 20.0002H10.36C12.2483 20.0009 13.8659 18.6487 14.2 16.7902C16.0275 16.383 17.328 14.7625 17.33 12.8902V4.0002C17.33 2.93237 16.9031 1.90884 16.1443 1.15754C15.3855 0.406231 14.3578 -0.010478 13.29 0.000200281ZM7.17997 4.8802H12.57C12.9842 4.8802 13.32 5.21599 13.32 5.6302C13.32 6.04441 12.9842 6.3802 12.57 6.3802H7.17997C6.76576 6.3802 6.42997 6.04441 6.42997 5.6302C6.42997 5.21599 6.76576 4.8802 7.17997 4.8802ZM5.31997 18.6702H10.32C11.4526 18.6715 12.4558 17.9393 12.8 16.8602H7.99997C5.79083 16.8602 3.99997 15.0693 3.99997 12.8602V4.6802C2.83435 4.9491 2.00645 5.98398 1.99997 7.1802V15.3502C2.01089 17.1792 3.49093 18.6593 5.31997 18.6702ZM6.42997 12.0702C6.42997 11.656 6.76576 11.3202 7.17997 11.3202H11C11.4142 11.3202 11.75 11.656 11.75 12.0702C11.75 12.4844 11.4142 12.8202 11 12.8202H7.17997C6.76576 12.8202 6.42997 12.4844 6.42997 12.0702ZM7.17997 9.6002H14.11C14.5242 9.6002 14.86 9.26441 14.86 8.8502C14.86 8.43599 14.5242 8.1002 14.11 8.1002H7.17997C6.76576 8.1002 6.42997 8.43599 6.42997 8.8502C6.42997 9.26441 6.76576 9.6002 7.17997 9.6002Z" fill="#404A51"/>
</svg>
